G04 #@! TF.GenerationSoftware,KiCad,Pcbnew,(5.0.0-3-g5ebb6b6)*
G04 #@! TF.CreationDate,2018-09-13T19:08:09-07:00*
G04 #@! TF.ProjectId,iotkong,696F746B6F6E672E6B696361645F7063,rev?*
G04 #@! TF.SameCoordinates,Original*
G04 #@! TF.FileFunction,Legend,Top*
G04 #@! TF.FilePolarity,Positive*
%FSLAX46Y46*%
G04 Gerber Fmt 4.6, Leading zero omitted, Abs format (unit mm)*
G04 Created by KiCad (PCBNEW (5.0.0-3-g5ebb6b6)) date Thursday, September 13, 2018 at 07:08:09 PM*
%MOMM*%
%LPD*%
G01*
G04 APERTURE LIST*
%ADD10C,0.300000*%
%ADD11C,0.200000*%
%ADD12C,0.127000*%
%ADD13C,0.120000*%
%ADD14C,0.101600*%
%ADD15C,0.100000*%
%ADD16C,0.150000*%
G04 APERTURE END LIST*
D10*
X48691114Y-42989971D02*
X48691114Y-41489971D01*
X49548257Y-42989971D02*
X48905400Y-42132828D01*
X49548257Y-41489971D02*
X48691114Y-42347114D01*
X50762542Y-42918542D02*
X50619685Y-42989971D01*
X50333971Y-42989971D01*
X50191114Y-42918542D01*
X50119685Y-42775685D01*
X50119685Y-42204257D01*
X50191114Y-42061400D01*
X50333971Y-41989971D01*
X50619685Y-41989971D01*
X50762542Y-42061400D01*
X50833971Y-42204257D01*
X50833971Y-42347114D01*
X50119685Y-42489971D01*
X51333971Y-41989971D02*
X51691114Y-42989971D01*
X52048257Y-41989971D01*
X52619685Y-42989971D02*
X52619685Y-41989971D01*
X52619685Y-41489971D02*
X52548257Y-41561400D01*
X52619685Y-41632828D01*
X52691114Y-41561400D01*
X52619685Y-41489971D01*
X52619685Y-41632828D01*
X53333971Y-41989971D02*
X53333971Y-42989971D01*
X53333971Y-42132828D02*
X53405400Y-42061400D01*
X53548257Y-41989971D01*
X53762542Y-41989971D01*
X53905400Y-42061400D01*
X53976828Y-42204257D01*
X53976828Y-42989971D01*
X56619685Y-41561400D02*
X56476828Y-41489971D01*
X56262542Y-41489971D01*
X56048257Y-41561400D01*
X55905400Y-41704257D01*
X55833971Y-41847114D01*
X55762542Y-42132828D01*
X55762542Y-42347114D01*
X55833971Y-42632828D01*
X55905400Y-42775685D01*
X56048257Y-42918542D01*
X56262542Y-42989971D01*
X56405400Y-42989971D01*
X56619685Y-42918542D01*
X56691114Y-42847114D01*
X56691114Y-42347114D01*
X56405400Y-42347114D01*
X57548257Y-42989971D02*
X57405400Y-42918542D01*
X57333971Y-42775685D01*
X57333971Y-41489971D01*
X58762542Y-42989971D02*
X58762542Y-42204257D01*
X58691114Y-42061400D01*
X58548257Y-41989971D01*
X58262542Y-41989971D01*
X58119685Y-42061400D01*
X58762542Y-42918542D02*
X58619685Y-42989971D01*
X58262542Y-42989971D01*
X58119685Y-42918542D01*
X58048257Y-42775685D01*
X58048257Y-42632828D01*
X58119685Y-42489971D01*
X58262542Y-42418542D01*
X58619685Y-42418542D01*
X58762542Y-42347114D01*
X59333971Y-41989971D02*
X59691114Y-42989971D01*
X60048257Y-41989971D01*
X60619685Y-42989971D02*
X60619685Y-41989971D01*
X60619685Y-41489971D02*
X60548257Y-41561400D01*
X60619685Y-41632828D01*
X60691114Y-41561400D01*
X60619685Y-41489971D01*
X60619685Y-41632828D01*
X61333971Y-41989971D02*
X61333971Y-42989971D01*
X61333971Y-42132828D02*
X61405400Y-42061400D01*
X61548257Y-41989971D01*
X61762542Y-41989971D01*
X61905400Y-42061400D01*
X61976828Y-42204257D01*
X61976828Y-42989971D01*
X53762542Y-44539971D02*
X54119685Y-45539971D01*
X54476828Y-44539971D01*
X55333971Y-44039971D02*
X55476828Y-44039971D01*
X55619685Y-44111400D01*
X55691114Y-44182828D01*
X55762542Y-44325685D01*
X55833971Y-44611400D01*
X55833971Y-44968542D01*
X55762542Y-45254257D01*
X55691114Y-45397114D01*
X55619685Y-45468542D01*
X55476828Y-45539971D01*
X55333971Y-45539971D01*
X55191114Y-45468542D01*
X55119685Y-45397114D01*
X55048257Y-45254257D01*
X54976828Y-44968542D01*
X54976828Y-44611400D01*
X55048257Y-44325685D01*
X55119685Y-44182828D01*
X55191114Y-44111400D01*
X55333971Y-44039971D01*
X56476828Y-45397114D02*
X56548257Y-45468542D01*
X56476828Y-45539971D01*
X56405400Y-45468542D01*
X56476828Y-45397114D01*
X56476828Y-45539971D01*
X57976828Y-45539971D02*
X57119685Y-45539971D01*
X57548257Y-45539971D02*
X57548257Y-44039971D01*
X57405400Y-44254257D01*
X57262542Y-44397114D01*
X57119685Y-44468542D01*
D11*
X265684000Y-45720000D02*
X275844000Y-45720000D01*
X217424000Y-45720000D02*
X227584000Y-45720000D01*
X169164000Y-45720000D02*
X179324000Y-45720000D01*
X120904000Y-45720000D02*
X131064000Y-45720000D01*
X275844000Y-45720000D02*
X275844000Y-48768000D01*
X227584000Y-45720000D02*
X227584000Y-48768000D01*
X179324000Y-45720000D02*
X179324000Y-48768000D01*
X131064000Y-45720000D02*
X131064000Y-48768000D01*
X265684000Y-48768000D02*
X265684000Y-45720000D01*
X217424000Y-48768000D02*
X217424000Y-45720000D01*
X169164000Y-48768000D02*
X169164000Y-45720000D01*
X120904000Y-48768000D02*
X120904000Y-45720000D01*
X283464000Y-89408000D02*
X255524000Y-89408000D01*
X235204000Y-89408000D02*
X207264000Y-89408000D01*
X186944000Y-89408000D02*
X159004000Y-89408000D01*
X138684000Y-89408000D02*
X110744000Y-89408000D01*
X255524000Y-48768000D02*
X283464000Y-48768000D01*
X207264000Y-48768000D02*
X235204000Y-48768000D01*
X159004000Y-48768000D02*
X186944000Y-48768000D01*
X110744000Y-48768000D02*
X138684000Y-48768000D01*
X283464000Y-48768000D02*
X283464000Y-89408000D01*
X235204000Y-48768000D02*
X235204000Y-89408000D01*
X186944000Y-48768000D02*
X186944000Y-89408000D01*
X138684000Y-48768000D02*
X138684000Y-89408000D01*
X255524000Y-89408000D02*
X255524000Y-48768000D01*
X207264000Y-89408000D02*
X207264000Y-48768000D01*
X159004000Y-89408000D02*
X159004000Y-48768000D01*
X110744000Y-89408000D02*
X110744000Y-48768000D01*
X82804000Y-45720000D02*
X82804000Y-48768000D01*
X72644000Y-45720000D02*
X82804000Y-45720000D01*
X72644000Y-48768000D02*
X72644000Y-45720000D01*
X62484000Y-89408000D02*
X62484000Y-48768000D01*
X90424000Y-89408000D02*
X62484000Y-89408000D01*
X90424000Y-48768000D02*
X90424000Y-89408000D01*
X62484000Y-48768000D02*
X90424000Y-48768000D01*
D12*
G04 #@! TO.C,SW1*
X46427800Y-51900400D02*
X46927800Y-52200400D01*
X46927800Y-51500400D02*
X46427800Y-51900400D01*
X42327800Y-49500400D02*
X42327800Y-58500400D01*
X45897800Y-49500400D02*
X46927800Y-49500400D01*
X42327800Y-49500400D02*
X43357800Y-49500400D01*
X45897800Y-58500400D02*
X46927800Y-58500400D01*
X46927800Y-49500400D02*
X46927800Y-58500400D01*
X42327800Y-58500400D02*
X43357800Y-58500400D01*
D13*
G04 #@! TO.C,R1*
X55219400Y-56007000D02*
X54269400Y-56007000D01*
X49479400Y-56007000D02*
X50429400Y-56007000D01*
X54269400Y-55087000D02*
X50429400Y-55087000D01*
X54269400Y-56927000D02*
X54269400Y-55087000D01*
X50429400Y-56927000D02*
X54269400Y-56927000D01*
X50429400Y-55087000D02*
X50429400Y-56927000D01*
G04 #@! TO.C,R2*
X45618600Y-82092800D02*
X46568600Y-82092800D01*
X51358600Y-82092800D02*
X50408600Y-82092800D01*
X46568600Y-83012800D02*
X50408600Y-83012800D01*
X46568600Y-81172800D02*
X46568600Y-83012800D01*
X50408600Y-81172800D02*
X46568600Y-81172800D01*
X50408600Y-83012800D02*
X50408600Y-81172800D01*
G04 #@! TO.C,R3*
X45618600Y-78765400D02*
X46568600Y-78765400D01*
X51358600Y-78765400D02*
X50408600Y-78765400D01*
X46568600Y-79685400D02*
X50408600Y-79685400D01*
X46568600Y-77845400D02*
X46568600Y-79685400D01*
X50408600Y-77845400D02*
X46568600Y-77845400D01*
X50408600Y-79685400D02*
X50408600Y-77845400D01*
G04 #@! TO.C,R4*
X94920000Y-83312000D02*
X95870000Y-83312000D01*
X100660000Y-83312000D02*
X99710000Y-83312000D01*
X95870000Y-84232000D02*
X99710000Y-84232000D01*
X95870000Y-82392000D02*
X95870000Y-84232000D01*
X99710000Y-82392000D02*
X95870000Y-82392000D01*
X99710000Y-84232000D02*
X99710000Y-82392000D01*
G04 #@! TO.C,R5*
X94920000Y-79756000D02*
X95870000Y-79756000D01*
X100660000Y-79756000D02*
X99710000Y-79756000D01*
X95870000Y-80676000D02*
X99710000Y-80676000D01*
X95870000Y-78836000D02*
X95870000Y-80676000D01*
X99710000Y-78836000D02*
X95870000Y-78836000D01*
X99710000Y-80676000D02*
X99710000Y-78836000D01*
G04 #@! TO.C,R6*
X143180000Y-83312000D02*
X144130000Y-83312000D01*
X148920000Y-83312000D02*
X147970000Y-83312000D01*
X144130000Y-84232000D02*
X147970000Y-84232000D01*
X144130000Y-82392000D02*
X144130000Y-84232000D01*
X147970000Y-82392000D02*
X144130000Y-82392000D01*
X147970000Y-84232000D02*
X147970000Y-82392000D01*
G04 #@! TO.C,R7*
X143180000Y-79756000D02*
X144130000Y-79756000D01*
X148920000Y-79756000D02*
X147970000Y-79756000D01*
X144130000Y-80676000D02*
X147970000Y-80676000D01*
X144130000Y-78836000D02*
X144130000Y-80676000D01*
X147970000Y-78836000D02*
X144130000Y-78836000D01*
X147970000Y-80676000D02*
X147970000Y-78836000D01*
G04 #@! TO.C,R8*
X191948000Y-83312000D02*
X192898000Y-83312000D01*
X197688000Y-83312000D02*
X196738000Y-83312000D01*
X192898000Y-84232000D02*
X196738000Y-84232000D01*
X192898000Y-82392000D02*
X192898000Y-84232000D01*
X196738000Y-82392000D02*
X192898000Y-82392000D01*
X196738000Y-84232000D02*
X196738000Y-82392000D01*
G04 #@! TO.C,R9*
X191948000Y-79756000D02*
X192898000Y-79756000D01*
X197688000Y-79756000D02*
X196738000Y-79756000D01*
X192898000Y-80676000D02*
X196738000Y-80676000D01*
X192898000Y-78836000D02*
X192898000Y-80676000D01*
X196738000Y-78836000D02*
X192898000Y-78836000D01*
X196738000Y-80676000D02*
X196738000Y-78836000D01*
G04 #@! TO.C,R10*
X240970000Y-83261200D02*
X241920000Y-83261200D01*
X246710000Y-83261200D02*
X245760000Y-83261200D01*
X241920000Y-84181200D02*
X245760000Y-84181200D01*
X241920000Y-82341200D02*
X241920000Y-84181200D01*
X245760000Y-82341200D02*
X241920000Y-82341200D01*
X245760000Y-84181200D02*
X245760000Y-82341200D01*
G04 #@! TO.C,R11*
X240970000Y-79705200D02*
X241920000Y-79705200D01*
X246710000Y-79705200D02*
X245760000Y-79705200D01*
X241920000Y-80625200D02*
X245760000Y-80625200D01*
X241920000Y-78785200D02*
X241920000Y-80625200D01*
X245760000Y-78785200D02*
X241920000Y-78785200D01*
X245760000Y-80625200D02*
X245760000Y-78785200D01*
G04 #@! TO.C,SW3*
X148610000Y-68982000D02*
X148610000Y-71662000D01*
X142370000Y-71662000D02*
X142370000Y-68982000D01*
X142520000Y-67202000D02*
X148460000Y-67202000D01*
X142520000Y-73442000D02*
X148460000Y-73442000D01*
X146904214Y-70322000D02*
G75*
G03X146904214Y-70322000I-1414214J0D01*
G01*
G04 #@! TO.C,SW4*
X196870000Y-68982000D02*
X196870000Y-71662000D01*
X190630000Y-71662000D02*
X190630000Y-68982000D01*
X190780000Y-67202000D02*
X196720000Y-67202000D01*
X190780000Y-73442000D02*
X196720000Y-73442000D01*
X195164214Y-70322000D02*
G75*
G03X195164214Y-70322000I-1414214J0D01*
G01*
G04 #@! TO.C,SW6*
X293390000Y-68982000D02*
X293390000Y-71662000D01*
X287150000Y-71662000D02*
X287150000Y-68982000D01*
X287300000Y-67202000D02*
X293240000Y-67202000D01*
X287300000Y-73442000D02*
X293240000Y-73442000D01*
X291684214Y-70322000D02*
G75*
G03X291684214Y-70322000I-1414214J0D01*
G01*
G04 #@! TO.C,SW5*
X245130000Y-68982000D02*
X245130000Y-71662000D01*
X238890000Y-71662000D02*
X238890000Y-68982000D01*
X239040000Y-67202000D02*
X244980000Y-67202000D01*
X239040000Y-73442000D02*
X244980000Y-73442000D01*
X243424214Y-70322000D02*
G75*
G03X243424214Y-70322000I-1414214J0D01*
G01*
G04 #@! TO.C,SW2*
X100350000Y-68982000D02*
X100350000Y-71662000D01*
X94110000Y-71662000D02*
X94110000Y-68982000D01*
X94260000Y-67202000D02*
X100200000Y-67202000D01*
X94260000Y-73442000D02*
X100200000Y-73442000D01*
X98644214Y-70322000D02*
G75*
G03X98644214Y-70322000I-1414214J0D01*
G01*
D14*
G04 #@! TO.C,J2*
X45161200Y-75311000D02*
X37388800Y-75311000D01*
D15*
X37396200Y-61595000D02*
X37396200Y-61058000D01*
X37388800Y-75311000D02*
X37388800Y-76073000D01*
D14*
X45161200Y-61595000D02*
X37388800Y-61595000D01*
D12*
X51714400Y-73533000D02*
X51714400Y-75311000D01*
X51714400Y-61595000D02*
X51714400Y-63373000D01*
X51714400Y-75311000D02*
X50241200Y-75311000D01*
X51714400Y-61595000D02*
X50241200Y-61595000D01*
D13*
G04 #@! TO.C,J8*
X255718000Y-88198000D02*
X258378000Y-88198000D01*
X255718000Y-52578000D02*
X255718000Y-88198000D01*
X258378000Y-52578000D02*
X258378000Y-88198000D01*
X255718000Y-52578000D02*
X258378000Y-52578000D01*
X255718000Y-51308000D02*
X255718000Y-49978000D01*
X255718000Y-49978000D02*
X257048000Y-49978000D01*
G04 #@! TO.C,J9*
X207458000Y-88198000D02*
X210118000Y-88198000D01*
X207458000Y-52578000D02*
X207458000Y-88198000D01*
X210118000Y-52578000D02*
X210118000Y-88198000D01*
X207458000Y-52578000D02*
X210118000Y-52578000D01*
X207458000Y-51308000D02*
X207458000Y-49978000D01*
X207458000Y-49978000D02*
X208788000Y-49978000D01*
G04 #@! TO.C,J6*
X159198000Y-88198000D02*
X161858000Y-88198000D01*
X159198000Y-52578000D02*
X159198000Y-88198000D01*
X161858000Y-52578000D02*
X161858000Y-88198000D01*
X159198000Y-52578000D02*
X161858000Y-52578000D01*
X159198000Y-51308000D02*
X159198000Y-49978000D01*
X159198000Y-49978000D02*
X160528000Y-49978000D01*
G04 #@! TO.C,J4*
X110938000Y-88198000D02*
X113598000Y-88198000D01*
X110938000Y-52578000D02*
X110938000Y-88198000D01*
X113598000Y-52578000D02*
X113598000Y-88198000D01*
X110938000Y-52578000D02*
X113598000Y-52578000D01*
X110938000Y-51308000D02*
X110938000Y-49978000D01*
X110938000Y-49978000D02*
X112268000Y-49978000D01*
G04 #@! TO.C,J10*
X279594000Y-49978000D02*
X280924000Y-49978000D01*
X279594000Y-51308000D02*
X279594000Y-49978000D01*
X279594000Y-52578000D02*
X282254000Y-52578000D01*
X282254000Y-52578000D02*
X282254000Y-88198000D01*
X279594000Y-52578000D02*
X279594000Y-88198000D01*
X279594000Y-88198000D02*
X282254000Y-88198000D01*
G04 #@! TO.C,J11*
X231334000Y-49978000D02*
X232664000Y-49978000D01*
X231334000Y-51308000D02*
X231334000Y-49978000D01*
X231334000Y-52578000D02*
X233994000Y-52578000D01*
X233994000Y-52578000D02*
X233994000Y-88198000D01*
X231334000Y-52578000D02*
X231334000Y-88198000D01*
X231334000Y-88198000D02*
X233994000Y-88198000D01*
G04 #@! TO.C,J7*
X183074000Y-49978000D02*
X184404000Y-49978000D01*
X183074000Y-51308000D02*
X183074000Y-49978000D01*
X183074000Y-52578000D02*
X185734000Y-52578000D01*
X185734000Y-52578000D02*
X185734000Y-88198000D01*
X183074000Y-52578000D02*
X183074000Y-88198000D01*
X183074000Y-88198000D02*
X185734000Y-88198000D01*
G04 #@! TO.C,J5*
X134814000Y-49978000D02*
X136144000Y-49978000D01*
X134814000Y-51308000D02*
X134814000Y-49978000D01*
X134814000Y-52578000D02*
X137474000Y-52578000D01*
X137474000Y-52578000D02*
X137474000Y-88198000D01*
X134814000Y-52578000D02*
X134814000Y-88198000D01*
X134814000Y-88198000D02*
X137474000Y-88198000D01*
G04 #@! TO.C,C5*
X295153200Y-54773200D02*
G75*
G03X295153200Y-54773200I-4120000J0D01*
G01*
X295113200Y-54773200D02*
X286953200Y-54773200D01*
X295113200Y-54813200D02*
X286953200Y-54813200D01*
X295113200Y-54853200D02*
X286953200Y-54853200D01*
X295112200Y-54893200D02*
X286954200Y-54893200D01*
X295110200Y-54933200D02*
X286956200Y-54933200D01*
X295109200Y-54973200D02*
X286957200Y-54973200D01*
X295107200Y-55013200D02*
X286959200Y-55013200D01*
X295104200Y-55053200D02*
X286962200Y-55053200D01*
X295101200Y-55093200D02*
X286965200Y-55093200D01*
X295098200Y-55133200D02*
X286968200Y-55133200D01*
X295094200Y-55173200D02*
X286972200Y-55173200D01*
X295090200Y-55213200D02*
X286976200Y-55213200D01*
X295085200Y-55253200D02*
X286981200Y-55253200D01*
X295081200Y-55293200D02*
X286985200Y-55293200D01*
X295075200Y-55333200D02*
X286991200Y-55333200D01*
X295070200Y-55373200D02*
X286996200Y-55373200D01*
X295063200Y-55413200D02*
X287003200Y-55413200D01*
X295057200Y-55453200D02*
X287009200Y-55453200D01*
X295050200Y-55494200D02*
X287016200Y-55494200D01*
X295043200Y-55534200D02*
X287023200Y-55534200D01*
X295035200Y-55574200D02*
X287031200Y-55574200D01*
X295027200Y-55614200D02*
X287039200Y-55614200D01*
X295018200Y-55654200D02*
X287048200Y-55654200D01*
X295009200Y-55694200D02*
X287057200Y-55694200D01*
X295000200Y-55734200D02*
X287066200Y-55734200D01*
X294990200Y-55774200D02*
X287076200Y-55774200D01*
X294980200Y-55814200D02*
X287086200Y-55814200D01*
X294969200Y-55854200D02*
X287097200Y-55854200D01*
X294958200Y-55894200D02*
X287108200Y-55894200D01*
X294947200Y-55934200D02*
X287119200Y-55934200D01*
X294935200Y-55974200D02*
X287131200Y-55974200D01*
X294922200Y-56014200D02*
X287144200Y-56014200D01*
X294910200Y-56054200D02*
X287156200Y-56054200D01*
X294896200Y-56094200D02*
X287170200Y-56094200D01*
X294883200Y-56134200D02*
X287183200Y-56134200D01*
X294868200Y-56174200D02*
X287198200Y-56174200D01*
X294854200Y-56214200D02*
X287212200Y-56214200D01*
X294838200Y-56254200D02*
X292073200Y-56254200D01*
X289993200Y-56254200D02*
X287228200Y-56254200D01*
X294823200Y-56294200D02*
X292073200Y-56294200D01*
X289993200Y-56294200D02*
X287243200Y-56294200D01*
X294807200Y-56334200D02*
X292073200Y-56334200D01*
X289993200Y-56334200D02*
X287259200Y-56334200D01*
X294790200Y-56374200D02*
X292073200Y-56374200D01*
X289993200Y-56374200D02*
X287276200Y-56374200D01*
X294773200Y-56414200D02*
X292073200Y-56414200D01*
X289993200Y-56414200D02*
X287293200Y-56414200D01*
X294755200Y-56454200D02*
X292073200Y-56454200D01*
X289993200Y-56454200D02*
X287311200Y-56454200D01*
X294737200Y-56494200D02*
X292073200Y-56494200D01*
X289993200Y-56494200D02*
X287329200Y-56494200D01*
X294719200Y-56534200D02*
X292073200Y-56534200D01*
X289993200Y-56534200D02*
X287347200Y-56534200D01*
X294699200Y-56574200D02*
X292073200Y-56574200D01*
X289993200Y-56574200D02*
X287367200Y-56574200D01*
X294680200Y-56614200D02*
X292073200Y-56614200D01*
X289993200Y-56614200D02*
X287386200Y-56614200D01*
X294660200Y-56654200D02*
X292073200Y-56654200D01*
X289993200Y-56654200D02*
X287406200Y-56654200D01*
X294639200Y-56694200D02*
X292073200Y-56694200D01*
X289993200Y-56694200D02*
X287427200Y-56694200D01*
X294617200Y-56734200D02*
X292073200Y-56734200D01*
X289993200Y-56734200D02*
X287449200Y-56734200D01*
X294595200Y-56774200D02*
X292073200Y-56774200D01*
X289993200Y-56774200D02*
X287471200Y-56774200D01*
X294573200Y-56814200D02*
X292073200Y-56814200D01*
X289993200Y-56814200D02*
X287493200Y-56814200D01*
X294550200Y-56854200D02*
X292073200Y-56854200D01*
X289993200Y-56854200D02*
X287516200Y-56854200D01*
X294526200Y-56894200D02*
X292073200Y-56894200D01*
X289993200Y-56894200D02*
X287540200Y-56894200D01*
X294502200Y-56934200D02*
X292073200Y-56934200D01*
X289993200Y-56934200D02*
X287564200Y-56934200D01*
X294477200Y-56974200D02*
X292073200Y-56974200D01*
X289993200Y-56974200D02*
X287589200Y-56974200D01*
X294451200Y-57014200D02*
X292073200Y-57014200D01*
X289993200Y-57014200D02*
X287615200Y-57014200D01*
X294425200Y-57054200D02*
X292073200Y-57054200D01*
X289993200Y-57054200D02*
X287641200Y-57054200D01*
X294398200Y-57094200D02*
X292073200Y-57094200D01*
X289993200Y-57094200D02*
X287668200Y-57094200D01*
X294371200Y-57134200D02*
X292073200Y-57134200D01*
X289993200Y-57134200D02*
X287695200Y-57134200D01*
X294342200Y-57174200D02*
X292073200Y-57174200D01*
X289993200Y-57174200D02*
X287724200Y-57174200D01*
X294313200Y-57214200D02*
X292073200Y-57214200D01*
X289993200Y-57214200D02*
X287753200Y-57214200D01*
X294283200Y-57254200D02*
X292073200Y-57254200D01*
X289993200Y-57254200D02*
X287783200Y-57254200D01*
X294253200Y-57294200D02*
X292073200Y-57294200D01*
X289993200Y-57294200D02*
X287813200Y-57294200D01*
X294222200Y-57334200D02*
X292073200Y-57334200D01*
X289993200Y-57334200D02*
X287844200Y-57334200D01*
X294189200Y-57374200D02*
X292073200Y-57374200D01*
X289993200Y-57374200D02*
X287877200Y-57374200D01*
X294157200Y-57414200D02*
X292073200Y-57414200D01*
X289993200Y-57414200D02*
X287909200Y-57414200D01*
X294123200Y-57454200D02*
X292073200Y-57454200D01*
X289993200Y-57454200D02*
X287943200Y-57454200D01*
X294088200Y-57494200D02*
X292073200Y-57494200D01*
X289993200Y-57494200D02*
X287978200Y-57494200D01*
X294052200Y-57534200D02*
X292073200Y-57534200D01*
X289993200Y-57534200D02*
X288014200Y-57534200D01*
X294016200Y-57574200D02*
X292073200Y-57574200D01*
X289993200Y-57574200D02*
X288050200Y-57574200D01*
X293978200Y-57614200D02*
X292073200Y-57614200D01*
X289993200Y-57614200D02*
X288088200Y-57614200D01*
X293940200Y-57654200D02*
X292073200Y-57654200D01*
X289993200Y-57654200D02*
X288126200Y-57654200D01*
X293900200Y-57694200D02*
X292073200Y-57694200D01*
X289993200Y-57694200D02*
X288166200Y-57694200D01*
X293859200Y-57734200D02*
X292073200Y-57734200D01*
X289993200Y-57734200D02*
X288207200Y-57734200D01*
X293817200Y-57774200D02*
X292073200Y-57774200D01*
X289993200Y-57774200D02*
X288249200Y-57774200D01*
X293774200Y-57814200D02*
X292073200Y-57814200D01*
X289993200Y-57814200D02*
X288292200Y-57814200D01*
X293730200Y-57854200D02*
X292073200Y-57854200D01*
X289993200Y-57854200D02*
X288336200Y-57854200D01*
X293684200Y-57894200D02*
X292073200Y-57894200D01*
X289993200Y-57894200D02*
X288382200Y-57894200D01*
X293637200Y-57934200D02*
X292073200Y-57934200D01*
X289993200Y-57934200D02*
X288429200Y-57934200D01*
X293589200Y-57974200D02*
X292073200Y-57974200D01*
X289993200Y-57974200D02*
X288477200Y-57974200D01*
X293538200Y-58014200D02*
X292073200Y-58014200D01*
X289993200Y-58014200D02*
X288528200Y-58014200D01*
X293487200Y-58054200D02*
X292073200Y-58054200D01*
X289993200Y-58054200D02*
X288579200Y-58054200D01*
X293433200Y-58094200D02*
X292073200Y-58094200D01*
X289993200Y-58094200D02*
X288633200Y-58094200D01*
X293378200Y-58134200D02*
X292073200Y-58134200D01*
X289993200Y-58134200D02*
X288688200Y-58134200D01*
X293320200Y-58174200D02*
X292073200Y-58174200D01*
X289993200Y-58174200D02*
X288746200Y-58174200D01*
X293261200Y-58214200D02*
X292073200Y-58214200D01*
X289993200Y-58214200D02*
X288805200Y-58214200D01*
X293199200Y-58254200D02*
X292073200Y-58254200D01*
X289993200Y-58254200D02*
X288867200Y-58254200D01*
X293135200Y-58294200D02*
X292073200Y-58294200D01*
X289993200Y-58294200D02*
X288931200Y-58294200D01*
X293067200Y-58334200D02*
X288999200Y-58334200D01*
X292997200Y-58374200D02*
X289069200Y-58374200D01*
X292923200Y-58414200D02*
X289143200Y-58414200D01*
X292846200Y-58454200D02*
X289220200Y-58454200D01*
X292764200Y-58494200D02*
X289302200Y-58494200D01*
X292678200Y-58534200D02*
X289388200Y-58534200D01*
X292585200Y-58574200D02*
X289481200Y-58574200D01*
X292486200Y-58614200D02*
X289580200Y-58614200D01*
X292379200Y-58654200D02*
X289687200Y-58654200D01*
X292262200Y-58694200D02*
X289804200Y-58694200D01*
X292131200Y-58734200D02*
X289935200Y-58734200D01*
X291981200Y-58774200D02*
X290085200Y-58774200D01*
X291801200Y-58814200D02*
X290265200Y-58814200D01*
X291566200Y-58854200D02*
X290500200Y-58854200D01*
X293348200Y-50363502D02*
X293348200Y-51163502D01*
X293748200Y-50763502D02*
X292948200Y-50763502D01*
G04 #@! TO.C,C4*
X247121800Y-54595400D02*
G75*
G03X247121800Y-54595400I-4120000J0D01*
G01*
X247081800Y-54595400D02*
X238921800Y-54595400D01*
X247081800Y-54635400D02*
X238921800Y-54635400D01*
X247081800Y-54675400D02*
X238921800Y-54675400D01*
X247080800Y-54715400D02*
X238922800Y-54715400D01*
X247078800Y-54755400D02*
X238924800Y-54755400D01*
X247077800Y-54795400D02*
X238925800Y-54795400D01*
X247075800Y-54835400D02*
X238927800Y-54835400D01*
X247072800Y-54875400D02*
X238930800Y-54875400D01*
X247069800Y-54915400D02*
X238933800Y-54915400D01*
X247066800Y-54955400D02*
X238936800Y-54955400D01*
X247062800Y-54995400D02*
X238940800Y-54995400D01*
X247058800Y-55035400D02*
X238944800Y-55035400D01*
X247053800Y-55075400D02*
X238949800Y-55075400D01*
X247049800Y-55115400D02*
X238953800Y-55115400D01*
X247043800Y-55155400D02*
X238959800Y-55155400D01*
X247038800Y-55195400D02*
X238964800Y-55195400D01*
X247031800Y-55235400D02*
X238971800Y-55235400D01*
X247025800Y-55275400D02*
X238977800Y-55275400D01*
X247018800Y-55316400D02*
X238984800Y-55316400D01*
X247011800Y-55356400D02*
X238991800Y-55356400D01*
X247003800Y-55396400D02*
X238999800Y-55396400D01*
X246995800Y-55436400D02*
X239007800Y-55436400D01*
X246986800Y-55476400D02*
X239016800Y-55476400D01*
X246977800Y-55516400D02*
X239025800Y-55516400D01*
X246968800Y-55556400D02*
X239034800Y-55556400D01*
X246958800Y-55596400D02*
X239044800Y-55596400D01*
X246948800Y-55636400D02*
X239054800Y-55636400D01*
X246937800Y-55676400D02*
X239065800Y-55676400D01*
X246926800Y-55716400D02*
X239076800Y-55716400D01*
X246915800Y-55756400D02*
X239087800Y-55756400D01*
X246903800Y-55796400D02*
X239099800Y-55796400D01*
X246890800Y-55836400D02*
X239112800Y-55836400D01*
X246878800Y-55876400D02*
X239124800Y-55876400D01*
X246864800Y-55916400D02*
X239138800Y-55916400D01*
X246851800Y-55956400D02*
X239151800Y-55956400D01*
X246836800Y-55996400D02*
X239166800Y-55996400D01*
X246822800Y-56036400D02*
X239180800Y-56036400D01*
X246806800Y-56076400D02*
X244041800Y-56076400D01*
X241961800Y-56076400D02*
X239196800Y-56076400D01*
X246791800Y-56116400D02*
X244041800Y-56116400D01*
X241961800Y-56116400D02*
X239211800Y-56116400D01*
X246775800Y-56156400D02*
X244041800Y-56156400D01*
X241961800Y-56156400D02*
X239227800Y-56156400D01*
X246758800Y-56196400D02*
X244041800Y-56196400D01*
X241961800Y-56196400D02*
X239244800Y-56196400D01*
X246741800Y-56236400D02*
X244041800Y-56236400D01*
X241961800Y-56236400D02*
X239261800Y-56236400D01*
X246723800Y-56276400D02*
X244041800Y-56276400D01*
X241961800Y-56276400D02*
X239279800Y-56276400D01*
X246705800Y-56316400D02*
X244041800Y-56316400D01*
X241961800Y-56316400D02*
X239297800Y-56316400D01*
X246687800Y-56356400D02*
X244041800Y-56356400D01*
X241961800Y-56356400D02*
X239315800Y-56356400D01*
X246667800Y-56396400D02*
X244041800Y-56396400D01*
X241961800Y-56396400D02*
X239335800Y-56396400D01*
X246648800Y-56436400D02*
X244041800Y-56436400D01*
X241961800Y-56436400D02*
X239354800Y-56436400D01*
X246628800Y-56476400D02*
X244041800Y-56476400D01*
X241961800Y-56476400D02*
X239374800Y-56476400D01*
X246607800Y-56516400D02*
X244041800Y-56516400D01*
X241961800Y-56516400D02*
X239395800Y-56516400D01*
X246585800Y-56556400D02*
X244041800Y-56556400D01*
X241961800Y-56556400D02*
X239417800Y-56556400D01*
X246563800Y-56596400D02*
X244041800Y-56596400D01*
X241961800Y-56596400D02*
X239439800Y-56596400D01*
X246541800Y-56636400D02*
X244041800Y-56636400D01*
X241961800Y-56636400D02*
X239461800Y-56636400D01*
X246518800Y-56676400D02*
X244041800Y-56676400D01*
X241961800Y-56676400D02*
X239484800Y-56676400D01*
X246494800Y-56716400D02*
X244041800Y-56716400D01*
X241961800Y-56716400D02*
X239508800Y-56716400D01*
X246470800Y-56756400D02*
X244041800Y-56756400D01*
X241961800Y-56756400D02*
X239532800Y-56756400D01*
X246445800Y-56796400D02*
X244041800Y-56796400D01*
X241961800Y-56796400D02*
X239557800Y-56796400D01*
X246419800Y-56836400D02*
X244041800Y-56836400D01*
X241961800Y-56836400D02*
X239583800Y-56836400D01*
X246393800Y-56876400D02*
X244041800Y-56876400D01*
X241961800Y-56876400D02*
X239609800Y-56876400D01*
X246366800Y-56916400D02*
X244041800Y-56916400D01*
X241961800Y-56916400D02*
X239636800Y-56916400D01*
X246339800Y-56956400D02*
X244041800Y-56956400D01*
X241961800Y-56956400D02*
X239663800Y-56956400D01*
X246310800Y-56996400D02*
X244041800Y-56996400D01*
X241961800Y-56996400D02*
X239692800Y-56996400D01*
X246281800Y-57036400D02*
X244041800Y-57036400D01*
X241961800Y-57036400D02*
X239721800Y-57036400D01*
X246251800Y-57076400D02*
X244041800Y-57076400D01*
X241961800Y-57076400D02*
X239751800Y-57076400D01*
X246221800Y-57116400D02*
X244041800Y-57116400D01*
X241961800Y-57116400D02*
X239781800Y-57116400D01*
X246190800Y-57156400D02*
X244041800Y-57156400D01*
X241961800Y-57156400D02*
X239812800Y-57156400D01*
X246157800Y-57196400D02*
X244041800Y-57196400D01*
X241961800Y-57196400D02*
X239845800Y-57196400D01*
X246125800Y-57236400D02*
X244041800Y-57236400D01*
X241961800Y-57236400D02*
X239877800Y-57236400D01*
X246091800Y-57276400D02*
X244041800Y-57276400D01*
X241961800Y-57276400D02*
X239911800Y-57276400D01*
X246056800Y-57316400D02*
X244041800Y-57316400D01*
X241961800Y-57316400D02*
X239946800Y-57316400D01*
X246020800Y-57356400D02*
X244041800Y-57356400D01*
X241961800Y-57356400D02*
X239982800Y-57356400D01*
X245984800Y-57396400D02*
X244041800Y-57396400D01*
X241961800Y-57396400D02*
X240018800Y-57396400D01*
X245946800Y-57436400D02*
X244041800Y-57436400D01*
X241961800Y-57436400D02*
X240056800Y-57436400D01*
X245908800Y-57476400D02*
X244041800Y-57476400D01*
X241961800Y-57476400D02*
X240094800Y-57476400D01*
X245868800Y-57516400D02*
X244041800Y-57516400D01*
X241961800Y-57516400D02*
X240134800Y-57516400D01*
X245827800Y-57556400D02*
X244041800Y-57556400D01*
X241961800Y-57556400D02*
X240175800Y-57556400D01*
X245785800Y-57596400D02*
X244041800Y-57596400D01*
X241961800Y-57596400D02*
X240217800Y-57596400D01*
X245742800Y-57636400D02*
X244041800Y-57636400D01*
X241961800Y-57636400D02*
X240260800Y-57636400D01*
X245698800Y-57676400D02*
X244041800Y-57676400D01*
X241961800Y-57676400D02*
X240304800Y-57676400D01*
X245652800Y-57716400D02*
X244041800Y-57716400D01*
X241961800Y-57716400D02*
X240350800Y-57716400D01*
X245605800Y-57756400D02*
X244041800Y-57756400D01*
X241961800Y-57756400D02*
X240397800Y-57756400D01*
X245557800Y-57796400D02*
X244041800Y-57796400D01*
X241961800Y-57796400D02*
X240445800Y-57796400D01*
X245506800Y-57836400D02*
X244041800Y-57836400D01*
X241961800Y-57836400D02*
X240496800Y-57836400D01*
X245455800Y-57876400D02*
X244041800Y-57876400D01*
X241961800Y-57876400D02*
X240547800Y-57876400D01*
X245401800Y-57916400D02*
X244041800Y-57916400D01*
X241961800Y-57916400D02*
X240601800Y-57916400D01*
X245346800Y-57956400D02*
X244041800Y-57956400D01*
X241961800Y-57956400D02*
X240656800Y-57956400D01*
X245288800Y-57996400D02*
X244041800Y-57996400D01*
X241961800Y-57996400D02*
X240714800Y-57996400D01*
X245229800Y-58036400D02*
X244041800Y-58036400D01*
X241961800Y-58036400D02*
X240773800Y-58036400D01*
X245167800Y-58076400D02*
X244041800Y-58076400D01*
X241961800Y-58076400D02*
X240835800Y-58076400D01*
X245103800Y-58116400D02*
X244041800Y-58116400D01*
X241961800Y-58116400D02*
X240899800Y-58116400D01*
X245035800Y-58156400D02*
X240967800Y-58156400D01*
X244965800Y-58196400D02*
X241037800Y-58196400D01*
X244891800Y-58236400D02*
X241111800Y-58236400D01*
X244814800Y-58276400D02*
X241188800Y-58276400D01*
X244732800Y-58316400D02*
X241270800Y-58316400D01*
X244646800Y-58356400D02*
X241356800Y-58356400D01*
X244553800Y-58396400D02*
X241449800Y-58396400D01*
X244454800Y-58436400D02*
X241548800Y-58436400D01*
X244347800Y-58476400D02*
X241655800Y-58476400D01*
X244230800Y-58516400D02*
X241772800Y-58516400D01*
X244099800Y-58556400D02*
X241903800Y-58556400D01*
X243949800Y-58596400D02*
X242053800Y-58596400D01*
X243769800Y-58636400D02*
X242233800Y-58636400D01*
X243534800Y-58676400D02*
X242468800Y-58676400D01*
X245316800Y-50185702D02*
X245316800Y-50985702D01*
X245716800Y-50585702D02*
X244916800Y-50585702D01*
G04 #@! TO.C,C3*
X198226800Y-54671600D02*
G75*
G03X198226800Y-54671600I-4120000J0D01*
G01*
X198186800Y-54671600D02*
X190026800Y-54671600D01*
X198186800Y-54711600D02*
X190026800Y-54711600D01*
X198186800Y-54751600D02*
X190026800Y-54751600D01*
X198185800Y-54791600D02*
X190027800Y-54791600D01*
X198183800Y-54831600D02*
X190029800Y-54831600D01*
X198182800Y-54871600D02*
X190030800Y-54871600D01*
X198180800Y-54911600D02*
X190032800Y-54911600D01*
X198177800Y-54951600D02*
X190035800Y-54951600D01*
X198174800Y-54991600D02*
X190038800Y-54991600D01*
X198171800Y-55031600D02*
X190041800Y-55031600D01*
X198167800Y-55071600D02*
X190045800Y-55071600D01*
X198163800Y-55111600D02*
X190049800Y-55111600D01*
X198158800Y-55151600D02*
X190054800Y-55151600D01*
X198154800Y-55191600D02*
X190058800Y-55191600D01*
X198148800Y-55231600D02*
X190064800Y-55231600D01*
X198143800Y-55271600D02*
X190069800Y-55271600D01*
X198136800Y-55311600D02*
X190076800Y-55311600D01*
X198130800Y-55351600D02*
X190082800Y-55351600D01*
X198123800Y-55392600D02*
X190089800Y-55392600D01*
X198116800Y-55432600D02*
X190096800Y-55432600D01*
X198108800Y-55472600D02*
X190104800Y-55472600D01*
X198100800Y-55512600D02*
X190112800Y-55512600D01*
X198091800Y-55552600D02*
X190121800Y-55552600D01*
X198082800Y-55592600D02*
X190130800Y-55592600D01*
X198073800Y-55632600D02*
X190139800Y-55632600D01*
X198063800Y-55672600D02*
X190149800Y-55672600D01*
X198053800Y-55712600D02*
X190159800Y-55712600D01*
X198042800Y-55752600D02*
X190170800Y-55752600D01*
X198031800Y-55792600D02*
X190181800Y-55792600D01*
X198020800Y-55832600D02*
X190192800Y-55832600D01*
X198008800Y-55872600D02*
X190204800Y-55872600D01*
X197995800Y-55912600D02*
X190217800Y-55912600D01*
X197983800Y-55952600D02*
X190229800Y-55952600D01*
X197969800Y-55992600D02*
X190243800Y-55992600D01*
X197956800Y-56032600D02*
X190256800Y-56032600D01*
X197941800Y-56072600D02*
X190271800Y-56072600D01*
X197927800Y-56112600D02*
X190285800Y-56112600D01*
X197911800Y-56152600D02*
X195146800Y-56152600D01*
X193066800Y-56152600D02*
X190301800Y-56152600D01*
X197896800Y-56192600D02*
X195146800Y-56192600D01*
X193066800Y-56192600D02*
X190316800Y-56192600D01*
X197880800Y-56232600D02*
X195146800Y-56232600D01*
X193066800Y-56232600D02*
X190332800Y-56232600D01*
X197863800Y-56272600D02*
X195146800Y-56272600D01*
X193066800Y-56272600D02*
X190349800Y-56272600D01*
X197846800Y-56312600D02*
X195146800Y-56312600D01*
X193066800Y-56312600D02*
X190366800Y-56312600D01*
X197828800Y-56352600D02*
X195146800Y-56352600D01*
X193066800Y-56352600D02*
X190384800Y-56352600D01*
X197810800Y-56392600D02*
X195146800Y-56392600D01*
X193066800Y-56392600D02*
X190402800Y-56392600D01*
X197792800Y-56432600D02*
X195146800Y-56432600D01*
X193066800Y-56432600D02*
X190420800Y-56432600D01*
X197772800Y-56472600D02*
X195146800Y-56472600D01*
X193066800Y-56472600D02*
X190440800Y-56472600D01*
X197753800Y-56512600D02*
X195146800Y-56512600D01*
X193066800Y-56512600D02*
X190459800Y-56512600D01*
X197733800Y-56552600D02*
X195146800Y-56552600D01*
X193066800Y-56552600D02*
X190479800Y-56552600D01*
X197712800Y-56592600D02*
X195146800Y-56592600D01*
X193066800Y-56592600D02*
X190500800Y-56592600D01*
X197690800Y-56632600D02*
X195146800Y-56632600D01*
X193066800Y-56632600D02*
X190522800Y-56632600D01*
X197668800Y-56672600D02*
X195146800Y-56672600D01*
X193066800Y-56672600D02*
X190544800Y-56672600D01*
X197646800Y-56712600D02*
X195146800Y-56712600D01*
X193066800Y-56712600D02*
X190566800Y-56712600D01*
X197623800Y-56752600D02*
X195146800Y-56752600D01*
X193066800Y-56752600D02*
X190589800Y-56752600D01*
X197599800Y-56792600D02*
X195146800Y-56792600D01*
X193066800Y-56792600D02*
X190613800Y-56792600D01*
X197575800Y-56832600D02*
X195146800Y-56832600D01*
X193066800Y-56832600D02*
X190637800Y-56832600D01*
X197550800Y-56872600D02*
X195146800Y-56872600D01*
X193066800Y-56872600D02*
X190662800Y-56872600D01*
X197524800Y-56912600D02*
X195146800Y-56912600D01*
X193066800Y-56912600D02*
X190688800Y-56912600D01*
X197498800Y-56952600D02*
X195146800Y-56952600D01*
X193066800Y-56952600D02*
X190714800Y-56952600D01*
X197471800Y-56992600D02*
X195146800Y-56992600D01*
X193066800Y-56992600D02*
X190741800Y-56992600D01*
X197444800Y-57032600D02*
X195146800Y-57032600D01*
X193066800Y-57032600D02*
X190768800Y-57032600D01*
X197415800Y-57072600D02*
X195146800Y-57072600D01*
X193066800Y-57072600D02*
X190797800Y-57072600D01*
X197386800Y-57112600D02*
X195146800Y-57112600D01*
X193066800Y-57112600D02*
X190826800Y-57112600D01*
X197356800Y-57152600D02*
X195146800Y-57152600D01*
X193066800Y-57152600D02*
X190856800Y-57152600D01*
X197326800Y-57192600D02*
X195146800Y-57192600D01*
X193066800Y-57192600D02*
X190886800Y-57192600D01*
X197295800Y-57232600D02*
X195146800Y-57232600D01*
X193066800Y-57232600D02*
X190917800Y-57232600D01*
X197262800Y-57272600D02*
X195146800Y-57272600D01*
X193066800Y-57272600D02*
X190950800Y-57272600D01*
X197230800Y-57312600D02*
X195146800Y-57312600D01*
X193066800Y-57312600D02*
X190982800Y-57312600D01*
X197196800Y-57352600D02*
X195146800Y-57352600D01*
X193066800Y-57352600D02*
X191016800Y-57352600D01*
X197161800Y-57392600D02*
X195146800Y-57392600D01*
X193066800Y-57392600D02*
X191051800Y-57392600D01*
X197125800Y-57432600D02*
X195146800Y-57432600D01*
X193066800Y-57432600D02*
X191087800Y-57432600D01*
X197089800Y-57472600D02*
X195146800Y-57472600D01*
X193066800Y-57472600D02*
X191123800Y-57472600D01*
X197051800Y-57512600D02*
X195146800Y-57512600D01*
X193066800Y-57512600D02*
X191161800Y-57512600D01*
X197013800Y-57552600D02*
X195146800Y-57552600D01*
X193066800Y-57552600D02*
X191199800Y-57552600D01*
X196973800Y-57592600D02*
X195146800Y-57592600D01*
X193066800Y-57592600D02*
X191239800Y-57592600D01*
X196932800Y-57632600D02*
X195146800Y-57632600D01*
X193066800Y-57632600D02*
X191280800Y-57632600D01*
X196890800Y-57672600D02*
X195146800Y-57672600D01*
X193066800Y-57672600D02*
X191322800Y-57672600D01*
X196847800Y-57712600D02*
X195146800Y-57712600D01*
X193066800Y-57712600D02*
X191365800Y-57712600D01*
X196803800Y-57752600D02*
X195146800Y-57752600D01*
X193066800Y-57752600D02*
X191409800Y-57752600D01*
X196757800Y-57792600D02*
X195146800Y-57792600D01*
X193066800Y-57792600D02*
X191455800Y-57792600D01*
X196710800Y-57832600D02*
X195146800Y-57832600D01*
X193066800Y-57832600D02*
X191502800Y-57832600D01*
X196662800Y-57872600D02*
X195146800Y-57872600D01*
X193066800Y-57872600D02*
X191550800Y-57872600D01*
X196611800Y-57912600D02*
X195146800Y-57912600D01*
X193066800Y-57912600D02*
X191601800Y-57912600D01*
X196560800Y-57952600D02*
X195146800Y-57952600D01*
X193066800Y-57952600D02*
X191652800Y-57952600D01*
X196506800Y-57992600D02*
X195146800Y-57992600D01*
X193066800Y-57992600D02*
X191706800Y-57992600D01*
X196451800Y-58032600D02*
X195146800Y-58032600D01*
X193066800Y-58032600D02*
X191761800Y-58032600D01*
X196393800Y-58072600D02*
X195146800Y-58072600D01*
X193066800Y-58072600D02*
X191819800Y-58072600D01*
X196334800Y-58112600D02*
X195146800Y-58112600D01*
X193066800Y-58112600D02*
X191878800Y-58112600D01*
X196272800Y-58152600D02*
X195146800Y-58152600D01*
X193066800Y-58152600D02*
X191940800Y-58152600D01*
X196208800Y-58192600D02*
X195146800Y-58192600D01*
X193066800Y-58192600D02*
X192004800Y-58192600D01*
X196140800Y-58232600D02*
X192072800Y-58232600D01*
X196070800Y-58272600D02*
X192142800Y-58272600D01*
X195996800Y-58312600D02*
X192216800Y-58312600D01*
X195919800Y-58352600D02*
X192293800Y-58352600D01*
X195837800Y-58392600D02*
X192375800Y-58392600D01*
X195751800Y-58432600D02*
X192461800Y-58432600D01*
X195658800Y-58472600D02*
X192554800Y-58472600D01*
X195559800Y-58512600D02*
X192653800Y-58512600D01*
X195452800Y-58552600D02*
X192760800Y-58552600D01*
X195335800Y-58592600D02*
X192877800Y-58592600D01*
X195204800Y-58632600D02*
X193008800Y-58632600D01*
X195054800Y-58672600D02*
X193158800Y-58672600D01*
X194874800Y-58712600D02*
X193338800Y-58712600D01*
X194639800Y-58752600D02*
X193573800Y-58752600D01*
X196421800Y-50261902D02*
X196421800Y-51061902D01*
X196821800Y-50661902D02*
X196021800Y-50661902D01*
G04 #@! TO.C,C2*
X149814400Y-54671600D02*
G75*
G03X149814400Y-54671600I-4120000J0D01*
G01*
X149774400Y-54671600D02*
X141614400Y-54671600D01*
X149774400Y-54711600D02*
X141614400Y-54711600D01*
X149774400Y-54751600D02*
X141614400Y-54751600D01*
X149773400Y-54791600D02*
X141615400Y-54791600D01*
X149771400Y-54831600D02*
X141617400Y-54831600D01*
X149770400Y-54871600D02*
X141618400Y-54871600D01*
X149768400Y-54911600D02*
X141620400Y-54911600D01*
X149765400Y-54951600D02*
X141623400Y-54951600D01*
X149762400Y-54991600D02*
X141626400Y-54991600D01*
X149759400Y-55031600D02*
X141629400Y-55031600D01*
X149755400Y-55071600D02*
X141633400Y-55071600D01*
X149751400Y-55111600D02*
X141637400Y-55111600D01*
X149746400Y-55151600D02*
X141642400Y-55151600D01*
X149742400Y-55191600D02*
X141646400Y-55191600D01*
X149736400Y-55231600D02*
X141652400Y-55231600D01*
X149731400Y-55271600D02*
X141657400Y-55271600D01*
X149724400Y-55311600D02*
X141664400Y-55311600D01*
X149718400Y-55351600D02*
X141670400Y-55351600D01*
X149711400Y-55392600D02*
X141677400Y-55392600D01*
X149704400Y-55432600D02*
X141684400Y-55432600D01*
X149696400Y-55472600D02*
X141692400Y-55472600D01*
X149688400Y-55512600D02*
X141700400Y-55512600D01*
X149679400Y-55552600D02*
X141709400Y-55552600D01*
X149670400Y-55592600D02*
X141718400Y-55592600D01*
X149661400Y-55632600D02*
X141727400Y-55632600D01*
X149651400Y-55672600D02*
X141737400Y-55672600D01*
X149641400Y-55712600D02*
X141747400Y-55712600D01*
X149630400Y-55752600D02*
X141758400Y-55752600D01*
X149619400Y-55792600D02*
X141769400Y-55792600D01*
X149608400Y-55832600D02*
X141780400Y-55832600D01*
X149596400Y-55872600D02*
X141792400Y-55872600D01*
X149583400Y-55912600D02*
X141805400Y-55912600D01*
X149571400Y-55952600D02*
X141817400Y-55952600D01*
X149557400Y-55992600D02*
X141831400Y-55992600D01*
X149544400Y-56032600D02*
X141844400Y-56032600D01*
X149529400Y-56072600D02*
X141859400Y-56072600D01*
X149515400Y-56112600D02*
X141873400Y-56112600D01*
X149499400Y-56152600D02*
X146734400Y-56152600D01*
X144654400Y-56152600D02*
X141889400Y-56152600D01*
X149484400Y-56192600D02*
X146734400Y-56192600D01*
X144654400Y-56192600D02*
X141904400Y-56192600D01*
X149468400Y-56232600D02*
X146734400Y-56232600D01*
X144654400Y-56232600D02*
X141920400Y-56232600D01*
X149451400Y-56272600D02*
X146734400Y-56272600D01*
X144654400Y-56272600D02*
X141937400Y-56272600D01*
X149434400Y-56312600D02*
X146734400Y-56312600D01*
X144654400Y-56312600D02*
X141954400Y-56312600D01*
X149416400Y-56352600D02*
X146734400Y-56352600D01*
X144654400Y-56352600D02*
X141972400Y-56352600D01*
X149398400Y-56392600D02*
X146734400Y-56392600D01*
X144654400Y-56392600D02*
X141990400Y-56392600D01*
X149380400Y-56432600D02*
X146734400Y-56432600D01*
X144654400Y-56432600D02*
X142008400Y-56432600D01*
X149360400Y-56472600D02*
X146734400Y-56472600D01*
X144654400Y-56472600D02*
X142028400Y-56472600D01*
X149341400Y-56512600D02*
X146734400Y-56512600D01*
X144654400Y-56512600D02*
X142047400Y-56512600D01*
X149321400Y-56552600D02*
X146734400Y-56552600D01*
X144654400Y-56552600D02*
X142067400Y-56552600D01*
X149300400Y-56592600D02*
X146734400Y-56592600D01*
X144654400Y-56592600D02*
X142088400Y-56592600D01*
X149278400Y-56632600D02*
X146734400Y-56632600D01*
X144654400Y-56632600D02*
X142110400Y-56632600D01*
X149256400Y-56672600D02*
X146734400Y-56672600D01*
X144654400Y-56672600D02*
X142132400Y-56672600D01*
X149234400Y-56712600D02*
X146734400Y-56712600D01*
X144654400Y-56712600D02*
X142154400Y-56712600D01*
X149211400Y-56752600D02*
X146734400Y-56752600D01*
X144654400Y-56752600D02*
X142177400Y-56752600D01*
X149187400Y-56792600D02*
X146734400Y-56792600D01*
X144654400Y-56792600D02*
X142201400Y-56792600D01*
X149163400Y-56832600D02*
X146734400Y-56832600D01*
X144654400Y-56832600D02*
X142225400Y-56832600D01*
X149138400Y-56872600D02*
X146734400Y-56872600D01*
X144654400Y-56872600D02*
X142250400Y-56872600D01*
X149112400Y-56912600D02*
X146734400Y-56912600D01*
X144654400Y-56912600D02*
X142276400Y-56912600D01*
X149086400Y-56952600D02*
X146734400Y-56952600D01*
X144654400Y-56952600D02*
X142302400Y-56952600D01*
X149059400Y-56992600D02*
X146734400Y-56992600D01*
X144654400Y-56992600D02*
X142329400Y-56992600D01*
X149032400Y-57032600D02*
X146734400Y-57032600D01*
X144654400Y-57032600D02*
X142356400Y-57032600D01*
X149003400Y-57072600D02*
X146734400Y-57072600D01*
X144654400Y-57072600D02*
X142385400Y-57072600D01*
X148974400Y-57112600D02*
X146734400Y-57112600D01*
X144654400Y-57112600D02*
X142414400Y-57112600D01*
X148944400Y-57152600D02*
X146734400Y-57152600D01*
X144654400Y-57152600D02*
X142444400Y-57152600D01*
X148914400Y-57192600D02*
X146734400Y-57192600D01*
X144654400Y-57192600D02*
X142474400Y-57192600D01*
X148883400Y-57232600D02*
X146734400Y-57232600D01*
X144654400Y-57232600D02*
X142505400Y-57232600D01*
X148850400Y-57272600D02*
X146734400Y-57272600D01*
X144654400Y-57272600D02*
X142538400Y-57272600D01*
X148818400Y-57312600D02*
X146734400Y-57312600D01*
X144654400Y-57312600D02*
X142570400Y-57312600D01*
X148784400Y-57352600D02*
X146734400Y-57352600D01*
X144654400Y-57352600D02*
X142604400Y-57352600D01*
X148749400Y-57392600D02*
X146734400Y-57392600D01*
X144654400Y-57392600D02*
X142639400Y-57392600D01*
X148713400Y-57432600D02*
X146734400Y-57432600D01*
X144654400Y-57432600D02*
X142675400Y-57432600D01*
X148677400Y-57472600D02*
X146734400Y-57472600D01*
X144654400Y-57472600D02*
X142711400Y-57472600D01*
X148639400Y-57512600D02*
X146734400Y-57512600D01*
X144654400Y-57512600D02*
X142749400Y-57512600D01*
X148601400Y-57552600D02*
X146734400Y-57552600D01*
X144654400Y-57552600D02*
X142787400Y-57552600D01*
X148561400Y-57592600D02*
X146734400Y-57592600D01*
X144654400Y-57592600D02*
X142827400Y-57592600D01*
X148520400Y-57632600D02*
X146734400Y-57632600D01*
X144654400Y-57632600D02*
X142868400Y-57632600D01*
X148478400Y-57672600D02*
X146734400Y-57672600D01*
X144654400Y-57672600D02*
X142910400Y-57672600D01*
X148435400Y-57712600D02*
X146734400Y-57712600D01*
X144654400Y-57712600D02*
X142953400Y-57712600D01*
X148391400Y-57752600D02*
X146734400Y-57752600D01*
X144654400Y-57752600D02*
X142997400Y-57752600D01*
X148345400Y-57792600D02*
X146734400Y-57792600D01*
X144654400Y-57792600D02*
X143043400Y-57792600D01*
X148298400Y-57832600D02*
X146734400Y-57832600D01*
X144654400Y-57832600D02*
X143090400Y-57832600D01*
X148250400Y-57872600D02*
X146734400Y-57872600D01*
X144654400Y-57872600D02*
X143138400Y-57872600D01*
X148199400Y-57912600D02*
X146734400Y-57912600D01*
X144654400Y-57912600D02*
X143189400Y-57912600D01*
X148148400Y-57952600D02*
X146734400Y-57952600D01*
X144654400Y-57952600D02*
X143240400Y-57952600D01*
X148094400Y-57992600D02*
X146734400Y-57992600D01*
X144654400Y-57992600D02*
X143294400Y-57992600D01*
X148039400Y-58032600D02*
X146734400Y-58032600D01*
X144654400Y-58032600D02*
X143349400Y-58032600D01*
X147981400Y-58072600D02*
X146734400Y-58072600D01*
X144654400Y-58072600D02*
X143407400Y-58072600D01*
X147922400Y-58112600D02*
X146734400Y-58112600D01*
X144654400Y-58112600D02*
X143466400Y-58112600D01*
X147860400Y-58152600D02*
X146734400Y-58152600D01*
X144654400Y-58152600D02*
X143528400Y-58152600D01*
X147796400Y-58192600D02*
X146734400Y-58192600D01*
X144654400Y-58192600D02*
X143592400Y-58192600D01*
X147728400Y-58232600D02*
X143660400Y-58232600D01*
X147658400Y-58272600D02*
X143730400Y-58272600D01*
X147584400Y-58312600D02*
X143804400Y-58312600D01*
X147507400Y-58352600D02*
X143881400Y-58352600D01*
X147425400Y-58392600D02*
X143963400Y-58392600D01*
X147339400Y-58432600D02*
X144049400Y-58432600D01*
X147246400Y-58472600D02*
X144142400Y-58472600D01*
X147147400Y-58512600D02*
X144241400Y-58512600D01*
X147040400Y-58552600D02*
X144348400Y-58552600D01*
X146923400Y-58592600D02*
X144465400Y-58592600D01*
X146792400Y-58632600D02*
X144596400Y-58632600D01*
X146642400Y-58672600D02*
X144746400Y-58672600D01*
X146462400Y-58712600D02*
X144926400Y-58712600D01*
X146227400Y-58752600D02*
X145161400Y-58752600D01*
X148009400Y-50261902D02*
X148009400Y-51061902D01*
X148409400Y-50661902D02*
X147609400Y-50661902D01*
G04 #@! TO.C,J3*
X86554000Y-88198000D02*
X89214000Y-88198000D01*
X86554000Y-52578000D02*
X86554000Y-88198000D01*
X89214000Y-52578000D02*
X89214000Y-88198000D01*
X86554000Y-52578000D02*
X89214000Y-52578000D01*
X86554000Y-51308000D02*
X86554000Y-49978000D01*
X86554000Y-49978000D02*
X87884000Y-49978000D01*
G04 #@! TO.C,J1*
X62678000Y-49978000D02*
X64008000Y-49978000D01*
X62678000Y-51308000D02*
X62678000Y-49978000D01*
X62678000Y-52578000D02*
X65338000Y-52578000D01*
X65338000Y-52578000D02*
X65338000Y-88198000D01*
X62678000Y-52578000D02*
X62678000Y-88198000D01*
X62678000Y-88198000D02*
X65338000Y-88198000D01*
G04 #@! TO.C,C1*
X99997000Y-50738102D02*
X99197000Y-50738102D01*
X99597000Y-50338102D02*
X99597000Y-51138102D01*
X97815000Y-58828800D02*
X96749000Y-58828800D01*
X98050000Y-58788800D02*
X96514000Y-58788800D01*
X98230000Y-58748800D02*
X96334000Y-58748800D01*
X98380000Y-58708800D02*
X96184000Y-58708800D01*
X98511000Y-58668800D02*
X96053000Y-58668800D01*
X98628000Y-58628800D02*
X95936000Y-58628800D01*
X98735000Y-58588800D02*
X95829000Y-58588800D01*
X98834000Y-58548800D02*
X95730000Y-58548800D01*
X98927000Y-58508800D02*
X95637000Y-58508800D01*
X99013000Y-58468800D02*
X95551000Y-58468800D01*
X99095000Y-58428800D02*
X95469000Y-58428800D01*
X99172000Y-58388800D02*
X95392000Y-58388800D01*
X99246000Y-58348800D02*
X95318000Y-58348800D01*
X99316000Y-58308800D02*
X95248000Y-58308800D01*
X96242000Y-58268800D02*
X95180000Y-58268800D01*
X99384000Y-58268800D02*
X98322000Y-58268800D01*
X96242000Y-58228800D02*
X95116000Y-58228800D01*
X99448000Y-58228800D02*
X98322000Y-58228800D01*
X96242000Y-58188800D02*
X95054000Y-58188800D01*
X99510000Y-58188800D02*
X98322000Y-58188800D01*
X96242000Y-58148800D02*
X94995000Y-58148800D01*
X99569000Y-58148800D02*
X98322000Y-58148800D01*
X96242000Y-58108800D02*
X94937000Y-58108800D01*
X99627000Y-58108800D02*
X98322000Y-58108800D01*
X96242000Y-58068800D02*
X94882000Y-58068800D01*
X99682000Y-58068800D02*
X98322000Y-58068800D01*
X96242000Y-58028800D02*
X94828000Y-58028800D01*
X99736000Y-58028800D02*
X98322000Y-58028800D01*
X96242000Y-57988800D02*
X94777000Y-57988800D01*
X99787000Y-57988800D02*
X98322000Y-57988800D01*
X96242000Y-57948800D02*
X94726000Y-57948800D01*
X99838000Y-57948800D02*
X98322000Y-57948800D01*
X96242000Y-57908800D02*
X94678000Y-57908800D01*
X99886000Y-57908800D02*
X98322000Y-57908800D01*
X96242000Y-57868800D02*
X94631000Y-57868800D01*
X99933000Y-57868800D02*
X98322000Y-57868800D01*
X96242000Y-57828800D02*
X94585000Y-57828800D01*
X99979000Y-57828800D02*
X98322000Y-57828800D01*
X96242000Y-57788800D02*
X94541000Y-57788800D01*
X100023000Y-57788800D02*
X98322000Y-57788800D01*
X96242000Y-57748800D02*
X94498000Y-57748800D01*
X100066000Y-57748800D02*
X98322000Y-57748800D01*
X96242000Y-57708800D02*
X94456000Y-57708800D01*
X100108000Y-57708800D02*
X98322000Y-57708800D01*
X96242000Y-57668800D02*
X94415000Y-57668800D01*
X100149000Y-57668800D02*
X98322000Y-57668800D01*
X96242000Y-57628800D02*
X94375000Y-57628800D01*
X100189000Y-57628800D02*
X98322000Y-57628800D01*
X96242000Y-57588800D02*
X94337000Y-57588800D01*
X100227000Y-57588800D02*
X98322000Y-57588800D01*
X96242000Y-57548800D02*
X94299000Y-57548800D01*
X100265000Y-57548800D02*
X98322000Y-57548800D01*
X96242000Y-57508800D02*
X94263000Y-57508800D01*
X100301000Y-57508800D02*
X98322000Y-57508800D01*
X96242000Y-57468800D02*
X94227000Y-57468800D01*
X100337000Y-57468800D02*
X98322000Y-57468800D01*
X96242000Y-57428800D02*
X94192000Y-57428800D01*
X100372000Y-57428800D02*
X98322000Y-57428800D01*
X96242000Y-57388800D02*
X94158000Y-57388800D01*
X100406000Y-57388800D02*
X98322000Y-57388800D01*
X96242000Y-57348800D02*
X94126000Y-57348800D01*
X100438000Y-57348800D02*
X98322000Y-57348800D01*
X96242000Y-57308800D02*
X94093000Y-57308800D01*
X100471000Y-57308800D02*
X98322000Y-57308800D01*
X96242000Y-57268800D02*
X94062000Y-57268800D01*
X100502000Y-57268800D02*
X98322000Y-57268800D01*
X96242000Y-57228800D02*
X94032000Y-57228800D01*
X100532000Y-57228800D02*
X98322000Y-57228800D01*
X96242000Y-57188800D02*
X94002000Y-57188800D01*
X100562000Y-57188800D02*
X98322000Y-57188800D01*
X96242000Y-57148800D02*
X93973000Y-57148800D01*
X100591000Y-57148800D02*
X98322000Y-57148800D01*
X96242000Y-57108800D02*
X93944000Y-57108800D01*
X100620000Y-57108800D02*
X98322000Y-57108800D01*
X96242000Y-57068800D02*
X93917000Y-57068800D01*
X100647000Y-57068800D02*
X98322000Y-57068800D01*
X96242000Y-57028800D02*
X93890000Y-57028800D01*
X100674000Y-57028800D02*
X98322000Y-57028800D01*
X96242000Y-56988800D02*
X93864000Y-56988800D01*
X100700000Y-56988800D02*
X98322000Y-56988800D01*
X96242000Y-56948800D02*
X93838000Y-56948800D01*
X100726000Y-56948800D02*
X98322000Y-56948800D01*
X96242000Y-56908800D02*
X93813000Y-56908800D01*
X100751000Y-56908800D02*
X98322000Y-56908800D01*
X96242000Y-56868800D02*
X93789000Y-56868800D01*
X100775000Y-56868800D02*
X98322000Y-56868800D01*
X96242000Y-56828800D02*
X93765000Y-56828800D01*
X100799000Y-56828800D02*
X98322000Y-56828800D01*
X96242000Y-56788800D02*
X93742000Y-56788800D01*
X100822000Y-56788800D02*
X98322000Y-56788800D01*
X96242000Y-56748800D02*
X93720000Y-56748800D01*
X100844000Y-56748800D02*
X98322000Y-56748800D01*
X96242000Y-56708800D02*
X93698000Y-56708800D01*
X100866000Y-56708800D02*
X98322000Y-56708800D01*
X96242000Y-56668800D02*
X93676000Y-56668800D01*
X100888000Y-56668800D02*
X98322000Y-56668800D01*
X96242000Y-56628800D02*
X93655000Y-56628800D01*
X100909000Y-56628800D02*
X98322000Y-56628800D01*
X96242000Y-56588800D02*
X93635000Y-56588800D01*
X100929000Y-56588800D02*
X98322000Y-56588800D01*
X96242000Y-56548800D02*
X93616000Y-56548800D01*
X100948000Y-56548800D02*
X98322000Y-56548800D01*
X96242000Y-56508800D02*
X93596000Y-56508800D01*
X100968000Y-56508800D02*
X98322000Y-56508800D01*
X96242000Y-56468800D02*
X93578000Y-56468800D01*
X100986000Y-56468800D02*
X98322000Y-56468800D01*
X96242000Y-56428800D02*
X93560000Y-56428800D01*
X101004000Y-56428800D02*
X98322000Y-56428800D01*
X96242000Y-56388800D02*
X93542000Y-56388800D01*
X101022000Y-56388800D02*
X98322000Y-56388800D01*
X96242000Y-56348800D02*
X93525000Y-56348800D01*
X101039000Y-56348800D02*
X98322000Y-56348800D01*
X96242000Y-56308800D02*
X93508000Y-56308800D01*
X101056000Y-56308800D02*
X98322000Y-56308800D01*
X96242000Y-56268800D02*
X93492000Y-56268800D01*
X101072000Y-56268800D02*
X98322000Y-56268800D01*
X96242000Y-56228800D02*
X93477000Y-56228800D01*
X101087000Y-56228800D02*
X98322000Y-56228800D01*
X101103000Y-56188800D02*
X93461000Y-56188800D01*
X101117000Y-56148800D02*
X93447000Y-56148800D01*
X101132000Y-56108800D02*
X93432000Y-56108800D01*
X101145000Y-56068800D02*
X93419000Y-56068800D01*
X101159000Y-56028800D02*
X93405000Y-56028800D01*
X101171000Y-55988800D02*
X93393000Y-55988800D01*
X101184000Y-55948800D02*
X93380000Y-55948800D01*
X101196000Y-55908800D02*
X93368000Y-55908800D01*
X101207000Y-55868800D02*
X93357000Y-55868800D01*
X101218000Y-55828800D02*
X93346000Y-55828800D01*
X101229000Y-55788800D02*
X93335000Y-55788800D01*
X101239000Y-55748800D02*
X93325000Y-55748800D01*
X101249000Y-55708800D02*
X93315000Y-55708800D01*
X101258000Y-55668800D02*
X93306000Y-55668800D01*
X101267000Y-55628800D02*
X93297000Y-55628800D01*
X101276000Y-55588800D02*
X93288000Y-55588800D01*
X101284000Y-55548800D02*
X93280000Y-55548800D01*
X101292000Y-55508800D02*
X93272000Y-55508800D01*
X101299000Y-55468800D02*
X93265000Y-55468800D01*
X101306000Y-55427800D02*
X93258000Y-55427800D01*
X101312000Y-55387800D02*
X93252000Y-55387800D01*
X101319000Y-55347800D02*
X93245000Y-55347800D01*
X101324000Y-55307800D02*
X93240000Y-55307800D01*
X101330000Y-55267800D02*
X93234000Y-55267800D01*
X101334000Y-55227800D02*
X93230000Y-55227800D01*
X101339000Y-55187800D02*
X93225000Y-55187800D01*
X101343000Y-55147800D02*
X93221000Y-55147800D01*
X101347000Y-55107800D02*
X93217000Y-55107800D01*
X101350000Y-55067800D02*
X93214000Y-55067800D01*
X101353000Y-55027800D02*
X93211000Y-55027800D01*
X101356000Y-54987800D02*
X93208000Y-54987800D01*
X101358000Y-54947800D02*
X93206000Y-54947800D01*
X101359000Y-54907800D02*
X93205000Y-54907800D01*
X101361000Y-54867800D02*
X93203000Y-54867800D01*
X101362000Y-54827800D02*
X93202000Y-54827800D01*
X101362000Y-54787800D02*
X93202000Y-54787800D01*
X101362000Y-54747800D02*
X93202000Y-54747800D01*
X101402000Y-54747800D02*
G75*
G03X101402000Y-54747800I-4120000J0D01*
G01*
G04 #@! TO.C,C6*
X92690200Y-51751200D02*
X92690200Y-53009200D01*
X90850200Y-51751200D02*
X90850200Y-53009200D01*
G04 #@! TO.C,C7*
X139008600Y-51700400D02*
X139008600Y-52958400D01*
X140848600Y-51700400D02*
X140848600Y-52958400D01*
G04 #@! TO.C,C8*
X189210200Y-51852800D02*
X189210200Y-53110800D01*
X187370200Y-51852800D02*
X187370200Y-53110800D01*
G04 #@! TO.C,C9*
X235960400Y-51979800D02*
X235960400Y-53237800D01*
X237800400Y-51979800D02*
X237800400Y-53237800D01*
G04 #@! TO.C,C10*
X285831800Y-51776600D02*
X285831800Y-53034600D01*
X283991800Y-51776600D02*
X283991800Y-53034600D01*
G04 #@! TO.C,D1*
X54590000Y-83799000D02*
X54590000Y-86889000D01*
X59650000Y-85344000D02*
G75*
G03X59650000Y-85344000I-2500000J0D01*
G01*
X60140000Y-85343538D02*
G75*
G02X54590000Y-86888830I-2990000J-462D01*
G01*
X60140000Y-85344462D02*
G75*
G03X54590000Y-83799170I-2990000J462D01*
G01*
G04 #@! TO.C,D2*
X60140000Y-78740462D02*
G75*
G03X54590000Y-77195170I-2990000J462D01*
G01*
X60140000Y-78739538D02*
G75*
G02X54590000Y-80284830I-2990000J-462D01*
G01*
X59650000Y-78740000D02*
G75*
G03X59650000Y-78740000I-2500000J0D01*
G01*
X54590000Y-77195000D02*
X54590000Y-80285000D01*
G04 #@! TO.C,D3*
X103866000Y-83799000D02*
X103866000Y-86889000D01*
X108926000Y-85344000D02*
G75*
G03X108926000Y-85344000I-2500000J0D01*
G01*
X109416000Y-85343538D02*
G75*
G02X103866000Y-86888830I-2990000J-462D01*
G01*
X109416000Y-85344462D02*
G75*
G03X103866000Y-83799170I-2990000J462D01*
G01*
G04 #@! TO.C,D4*
X109416000Y-78740462D02*
G75*
G03X103866000Y-77195170I-2990000J462D01*
G01*
X109416000Y-78739538D02*
G75*
G02X103866000Y-80284830I-2990000J-462D01*
G01*
X108926000Y-78740000D02*
G75*
G03X108926000Y-78740000I-2500000J0D01*
G01*
X103866000Y-77195000D02*
X103866000Y-80285000D01*
G04 #@! TO.C,D5*
X152126000Y-83799000D02*
X152126000Y-86889000D01*
X157186000Y-85344000D02*
G75*
G03X157186000Y-85344000I-2500000J0D01*
G01*
X157676000Y-85343538D02*
G75*
G02X152126000Y-86888830I-2990000J-462D01*
G01*
X157676000Y-85344462D02*
G75*
G03X152126000Y-83799170I-2990000J462D01*
G01*
G04 #@! TO.C,D6*
X157676000Y-78740462D02*
G75*
G03X152126000Y-77195170I-2990000J462D01*
G01*
X157676000Y-78739538D02*
G75*
G02X152126000Y-80284830I-2990000J-462D01*
G01*
X157186000Y-78740000D02*
G75*
G03X157186000Y-78740000I-2500000J0D01*
G01*
X152126000Y-77195000D02*
X152126000Y-80285000D01*
G04 #@! TO.C,D7*
X200386000Y-83799000D02*
X200386000Y-86889000D01*
X205446000Y-85344000D02*
G75*
G03X205446000Y-85344000I-2500000J0D01*
G01*
X205936000Y-85343538D02*
G75*
G02X200386000Y-86888830I-2990000J-462D01*
G01*
X205936000Y-85344462D02*
G75*
G03X200386000Y-83799170I-2990000J462D01*
G01*
G04 #@! TO.C,D8*
X200386000Y-77195000D02*
X200386000Y-80285000D01*
X205446000Y-78740000D02*
G75*
G03X205446000Y-78740000I-2500000J0D01*
G01*
X205936000Y-78739538D02*
G75*
G02X200386000Y-80284830I-2990000J-462D01*
G01*
X205936000Y-78740462D02*
G75*
G03X200386000Y-77195170I-2990000J462D01*
G01*
G04 #@! TO.C,D9*
X254958000Y-85293662D02*
G75*
G03X249408000Y-83748370I-2990000J462D01*
G01*
X254958000Y-85292738D02*
G75*
G02X249408000Y-86838030I-2990000J-462D01*
G01*
X254468000Y-85293200D02*
G75*
G03X254468000Y-85293200I-2500000J0D01*
G01*
X249408000Y-83748200D02*
X249408000Y-86838200D01*
G04 #@! TO.C,D10*
X254958000Y-78689662D02*
G75*
G03X249408000Y-77144370I-2990000J462D01*
G01*
X254958000Y-78688738D02*
G75*
G02X249408000Y-80234030I-2990000J-462D01*
G01*
X254468000Y-78689200D02*
G75*
G03X254468000Y-78689200I-2500000J0D01*
G01*
X249408000Y-77144200D02*
X249408000Y-80234200D01*
G04 #@! TO.C,SW1*
D16*
X41262466Y-47801161D02*
X41405323Y-47848780D01*
X41643419Y-47848780D01*
X41738657Y-47801161D01*
X41786276Y-47753542D01*
X41833895Y-47658304D01*
X41833895Y-47563066D01*
X41786276Y-47467828D01*
X41738657Y-47420209D01*
X41643419Y-47372590D01*
X41452942Y-47324971D01*
X41357704Y-47277352D01*
X41310085Y-47229733D01*
X41262466Y-47134495D01*
X41262466Y-47039257D01*
X41310085Y-46944019D01*
X41357704Y-46896400D01*
X41452942Y-46848780D01*
X41691038Y-46848780D01*
X41833895Y-46896400D01*
X42167228Y-46848780D02*
X42405323Y-47848780D01*
X42595800Y-47134495D01*
X42786276Y-47848780D01*
X43024371Y-46848780D01*
X43929133Y-47848780D02*
X43357704Y-47848780D01*
X43643419Y-47848780D02*
X43643419Y-46848780D01*
X43548180Y-46991638D01*
X43452942Y-47086876D01*
X43357704Y-47134495D01*
G04 #@! TO.C,R1*
X52182733Y-54539380D02*
X51849400Y-54063190D01*
X51611304Y-54539380D02*
X51611304Y-53539380D01*
X51992257Y-53539380D01*
X52087495Y-53587000D01*
X52135114Y-53634619D01*
X52182733Y-53729857D01*
X52182733Y-53872714D01*
X52135114Y-53967952D01*
X52087495Y-54015571D01*
X51992257Y-54063190D01*
X51611304Y-54063190D01*
X53135114Y-54539380D02*
X52563685Y-54539380D01*
X52849400Y-54539380D02*
X52849400Y-53539380D01*
X52754161Y-53682238D01*
X52658923Y-53777476D01*
X52563685Y-53825095D01*
G04 #@! TO.C,R2*
X42530733Y-82418180D02*
X42197400Y-81941990D01*
X41959304Y-82418180D02*
X41959304Y-81418180D01*
X42340257Y-81418180D01*
X42435495Y-81465800D01*
X42483114Y-81513419D01*
X42530733Y-81608657D01*
X42530733Y-81751514D01*
X42483114Y-81846752D01*
X42435495Y-81894371D01*
X42340257Y-81941990D01*
X41959304Y-81941990D01*
X42911685Y-81513419D02*
X42959304Y-81465800D01*
X43054542Y-81418180D01*
X43292638Y-81418180D01*
X43387876Y-81465800D01*
X43435495Y-81513419D01*
X43483114Y-81608657D01*
X43483114Y-81703895D01*
X43435495Y-81846752D01*
X42864066Y-82418180D01*
X43483114Y-82418180D01*
G04 #@! TO.C,R3*
X42454533Y-79090780D02*
X42121200Y-78614590D01*
X41883104Y-79090780D02*
X41883104Y-78090780D01*
X42264057Y-78090780D01*
X42359295Y-78138400D01*
X42406914Y-78186019D01*
X42454533Y-78281257D01*
X42454533Y-78424114D01*
X42406914Y-78519352D01*
X42359295Y-78566971D01*
X42264057Y-78614590D01*
X41883104Y-78614590D01*
X42787866Y-78090780D02*
X43406914Y-78090780D01*
X43073580Y-78471733D01*
X43216438Y-78471733D01*
X43311676Y-78519352D01*
X43359295Y-78566971D01*
X43406914Y-78662209D01*
X43406914Y-78900304D01*
X43359295Y-78995542D01*
X43311676Y-79043161D01*
X43216438Y-79090780D01*
X42930723Y-79090780D01*
X42835485Y-79043161D01*
X42787866Y-78995542D01*
G04 #@! TO.C,R4*
X91857533Y-83713580D02*
X91524200Y-83237390D01*
X91286104Y-83713580D02*
X91286104Y-82713580D01*
X91667057Y-82713580D01*
X91762295Y-82761200D01*
X91809914Y-82808819D01*
X91857533Y-82904057D01*
X91857533Y-83046914D01*
X91809914Y-83142152D01*
X91762295Y-83189771D01*
X91667057Y-83237390D01*
X91286104Y-83237390D01*
X92714676Y-83046914D02*
X92714676Y-83713580D01*
X92476580Y-82665961D02*
X92238485Y-83380247D01*
X92857533Y-83380247D01*
G04 #@! TO.C,R5*
X91832133Y-80284580D02*
X91498800Y-79808390D01*
X91260704Y-80284580D02*
X91260704Y-79284580D01*
X91641657Y-79284580D01*
X91736895Y-79332200D01*
X91784514Y-79379819D01*
X91832133Y-79475057D01*
X91832133Y-79617914D01*
X91784514Y-79713152D01*
X91736895Y-79760771D01*
X91641657Y-79808390D01*
X91260704Y-79808390D01*
X92736895Y-79284580D02*
X92260704Y-79284580D01*
X92213085Y-79760771D01*
X92260704Y-79713152D01*
X92355942Y-79665533D01*
X92594038Y-79665533D01*
X92689276Y-79713152D01*
X92736895Y-79760771D01*
X92784514Y-79856009D01*
X92784514Y-80094104D01*
X92736895Y-80189342D01*
X92689276Y-80236961D01*
X92594038Y-80284580D01*
X92355942Y-80284580D01*
X92260704Y-80236961D01*
X92213085Y-80189342D01*
G04 #@! TO.C,R6*
X140117533Y-83764380D02*
X139784200Y-83288190D01*
X139546104Y-83764380D02*
X139546104Y-82764380D01*
X139927057Y-82764380D01*
X140022295Y-82812000D01*
X140069914Y-82859619D01*
X140117533Y-82954857D01*
X140117533Y-83097714D01*
X140069914Y-83192952D01*
X140022295Y-83240571D01*
X139927057Y-83288190D01*
X139546104Y-83288190D01*
X140974676Y-82764380D02*
X140784200Y-82764380D01*
X140688961Y-82812000D01*
X140641342Y-82859619D01*
X140546104Y-83002476D01*
X140498485Y-83192952D01*
X140498485Y-83573904D01*
X140546104Y-83669142D01*
X140593723Y-83716761D01*
X140688961Y-83764380D01*
X140879438Y-83764380D01*
X140974676Y-83716761D01*
X141022295Y-83669142D01*
X141069914Y-83573904D01*
X141069914Y-83335809D01*
X141022295Y-83240571D01*
X140974676Y-83192952D01*
X140879438Y-83145333D01*
X140688961Y-83145333D01*
X140593723Y-83192952D01*
X140546104Y-83240571D01*
X140498485Y-83335809D01*
G04 #@! TO.C,R7*
X140092133Y-80157580D02*
X139758800Y-79681390D01*
X139520704Y-80157580D02*
X139520704Y-79157580D01*
X139901657Y-79157580D01*
X139996895Y-79205200D01*
X140044514Y-79252819D01*
X140092133Y-79348057D01*
X140092133Y-79490914D01*
X140044514Y-79586152D01*
X139996895Y-79633771D01*
X139901657Y-79681390D01*
X139520704Y-79681390D01*
X140425466Y-79157580D02*
X141092133Y-79157580D01*
X140663561Y-80157580D01*
G04 #@! TO.C,R8*
X194651333Y-85684380D02*
X194318000Y-85208190D01*
X194079904Y-85684380D02*
X194079904Y-84684380D01*
X194460857Y-84684380D01*
X194556095Y-84732000D01*
X194603714Y-84779619D01*
X194651333Y-84874857D01*
X194651333Y-85017714D01*
X194603714Y-85112952D01*
X194556095Y-85160571D01*
X194460857Y-85208190D01*
X194079904Y-85208190D01*
X195222761Y-85112952D02*
X195127523Y-85065333D01*
X195079904Y-85017714D01*
X195032285Y-84922476D01*
X195032285Y-84874857D01*
X195079904Y-84779619D01*
X195127523Y-84732000D01*
X195222761Y-84684380D01*
X195413238Y-84684380D01*
X195508476Y-84732000D01*
X195556095Y-84779619D01*
X195603714Y-84874857D01*
X195603714Y-84922476D01*
X195556095Y-85017714D01*
X195508476Y-85065333D01*
X195413238Y-85112952D01*
X195222761Y-85112952D01*
X195127523Y-85160571D01*
X195079904Y-85208190D01*
X195032285Y-85303428D01*
X195032285Y-85493904D01*
X195079904Y-85589142D01*
X195127523Y-85636761D01*
X195222761Y-85684380D01*
X195413238Y-85684380D01*
X195508476Y-85636761D01*
X195556095Y-85589142D01*
X195603714Y-85493904D01*
X195603714Y-85303428D01*
X195556095Y-85208190D01*
X195508476Y-85160571D01*
X195413238Y-85112952D01*
G04 #@! TO.C,R9*
X194651333Y-82128380D02*
X194318000Y-81652190D01*
X194079904Y-82128380D02*
X194079904Y-81128380D01*
X194460857Y-81128380D01*
X194556095Y-81176000D01*
X194603714Y-81223619D01*
X194651333Y-81318857D01*
X194651333Y-81461714D01*
X194603714Y-81556952D01*
X194556095Y-81604571D01*
X194460857Y-81652190D01*
X194079904Y-81652190D01*
X195127523Y-82128380D02*
X195318000Y-82128380D01*
X195413238Y-82080761D01*
X195460857Y-82033142D01*
X195556095Y-81890285D01*
X195603714Y-81699809D01*
X195603714Y-81318857D01*
X195556095Y-81223619D01*
X195508476Y-81176000D01*
X195413238Y-81128380D01*
X195222761Y-81128380D01*
X195127523Y-81176000D01*
X195079904Y-81223619D01*
X195032285Y-81318857D01*
X195032285Y-81556952D01*
X195079904Y-81652190D01*
X195127523Y-81699809D01*
X195222761Y-81747428D01*
X195413238Y-81747428D01*
X195508476Y-81699809D01*
X195556095Y-81652190D01*
X195603714Y-81556952D01*
G04 #@! TO.C,R10*
X236872542Y-83611980D02*
X236539209Y-83135790D01*
X236301114Y-83611980D02*
X236301114Y-82611980D01*
X236682066Y-82611980D01*
X236777304Y-82659600D01*
X236824923Y-82707219D01*
X236872542Y-82802457D01*
X236872542Y-82945314D01*
X236824923Y-83040552D01*
X236777304Y-83088171D01*
X236682066Y-83135790D01*
X236301114Y-83135790D01*
X237824923Y-83611980D02*
X237253495Y-83611980D01*
X237539209Y-83611980D02*
X237539209Y-82611980D01*
X237443971Y-82754838D01*
X237348733Y-82850076D01*
X237253495Y-82897695D01*
X238443971Y-82611980D02*
X238539209Y-82611980D01*
X238634447Y-82659600D01*
X238682066Y-82707219D01*
X238729685Y-82802457D01*
X238777304Y-82992933D01*
X238777304Y-83231028D01*
X238729685Y-83421504D01*
X238682066Y-83516742D01*
X238634447Y-83564361D01*
X238539209Y-83611980D01*
X238443971Y-83611980D01*
X238348733Y-83564361D01*
X238301114Y-83516742D01*
X238253495Y-83421504D01*
X238205876Y-83231028D01*
X238205876Y-82992933D01*
X238253495Y-82802457D01*
X238301114Y-82707219D01*
X238348733Y-82659600D01*
X238443971Y-82611980D01*
G04 #@! TO.C,R11*
X236872542Y-80157580D02*
X236539209Y-79681390D01*
X236301114Y-80157580D02*
X236301114Y-79157580D01*
X236682066Y-79157580D01*
X236777304Y-79205200D01*
X236824923Y-79252819D01*
X236872542Y-79348057D01*
X236872542Y-79490914D01*
X236824923Y-79586152D01*
X236777304Y-79633771D01*
X236682066Y-79681390D01*
X236301114Y-79681390D01*
X237824923Y-80157580D02*
X237253495Y-80157580D01*
X237539209Y-80157580D02*
X237539209Y-79157580D01*
X237443971Y-79300438D01*
X237348733Y-79395676D01*
X237253495Y-79443295D01*
X238777304Y-80157580D02*
X238205876Y-80157580D01*
X238491590Y-80157580D02*
X238491590Y-79157580D01*
X238396352Y-79300438D01*
X238301114Y-79395676D01*
X238205876Y-79443295D01*
G04 #@! TO.C,SW3*
X137782466Y-66495561D02*
X137925323Y-66543180D01*
X138163419Y-66543180D01*
X138258657Y-66495561D01*
X138306276Y-66447942D01*
X138353895Y-66352704D01*
X138353895Y-66257466D01*
X138306276Y-66162228D01*
X138258657Y-66114609D01*
X138163419Y-66066990D01*
X137972942Y-66019371D01*
X137877704Y-65971752D01*
X137830085Y-65924133D01*
X137782466Y-65828895D01*
X137782466Y-65733657D01*
X137830085Y-65638419D01*
X137877704Y-65590800D01*
X137972942Y-65543180D01*
X138211038Y-65543180D01*
X138353895Y-65590800D01*
X138687228Y-65543180D02*
X138925323Y-66543180D01*
X139115800Y-65828895D01*
X139306276Y-66543180D01*
X139544371Y-65543180D01*
X139830085Y-65543180D02*
X140449133Y-65543180D01*
X140115800Y-65924133D01*
X140258657Y-65924133D01*
X140353895Y-65971752D01*
X140401514Y-66019371D01*
X140449133Y-66114609D01*
X140449133Y-66352704D01*
X140401514Y-66447942D01*
X140353895Y-66495561D01*
X140258657Y-66543180D01*
X139972942Y-66543180D01*
X139877704Y-66495561D01*
X139830085Y-66447942D01*
G04 #@! TO.C,SW4*
X186398066Y-66495561D02*
X186540923Y-66543180D01*
X186779019Y-66543180D01*
X186874257Y-66495561D01*
X186921876Y-66447942D01*
X186969495Y-66352704D01*
X186969495Y-66257466D01*
X186921876Y-66162228D01*
X186874257Y-66114609D01*
X186779019Y-66066990D01*
X186588542Y-66019371D01*
X186493304Y-65971752D01*
X186445685Y-65924133D01*
X186398066Y-65828895D01*
X186398066Y-65733657D01*
X186445685Y-65638419D01*
X186493304Y-65590800D01*
X186588542Y-65543180D01*
X186826638Y-65543180D01*
X186969495Y-65590800D01*
X187302828Y-65543180D02*
X187540923Y-66543180D01*
X187731400Y-65828895D01*
X187921876Y-66543180D01*
X188159971Y-65543180D01*
X188969495Y-65876514D02*
X188969495Y-66543180D01*
X188731400Y-65495561D02*
X188493304Y-66209847D01*
X189112352Y-66209847D01*
G04 #@! TO.C,SW6*
X282918066Y-66368561D02*
X283060923Y-66416180D01*
X283299019Y-66416180D01*
X283394257Y-66368561D01*
X283441876Y-66320942D01*
X283489495Y-66225704D01*
X283489495Y-66130466D01*
X283441876Y-66035228D01*
X283394257Y-65987609D01*
X283299019Y-65939990D01*
X283108542Y-65892371D01*
X283013304Y-65844752D01*
X282965685Y-65797133D01*
X282918066Y-65701895D01*
X282918066Y-65606657D01*
X282965685Y-65511419D01*
X283013304Y-65463800D01*
X283108542Y-65416180D01*
X283346638Y-65416180D01*
X283489495Y-65463800D01*
X283822828Y-65416180D02*
X284060923Y-66416180D01*
X284251400Y-65701895D01*
X284441876Y-66416180D01*
X284679971Y-65416180D01*
X285489495Y-65416180D02*
X285299019Y-65416180D01*
X285203780Y-65463800D01*
X285156161Y-65511419D01*
X285060923Y-65654276D01*
X285013304Y-65844752D01*
X285013304Y-66225704D01*
X285060923Y-66320942D01*
X285108542Y-66368561D01*
X285203780Y-66416180D01*
X285394257Y-66416180D01*
X285489495Y-66368561D01*
X285537114Y-66320942D01*
X285584733Y-66225704D01*
X285584733Y-65987609D01*
X285537114Y-65892371D01*
X285489495Y-65844752D01*
X285394257Y-65797133D01*
X285203780Y-65797133D01*
X285108542Y-65844752D01*
X285060923Y-65892371D01*
X285013304Y-65987609D01*
G04 #@! TO.C,SW5*
X234683466Y-66419361D02*
X234826323Y-66466980D01*
X235064419Y-66466980D01*
X235159657Y-66419361D01*
X235207276Y-66371742D01*
X235254895Y-66276504D01*
X235254895Y-66181266D01*
X235207276Y-66086028D01*
X235159657Y-66038409D01*
X235064419Y-65990790D01*
X234873942Y-65943171D01*
X234778704Y-65895552D01*
X234731085Y-65847933D01*
X234683466Y-65752695D01*
X234683466Y-65657457D01*
X234731085Y-65562219D01*
X234778704Y-65514600D01*
X234873942Y-65466980D01*
X235112038Y-65466980D01*
X235254895Y-65514600D01*
X235588228Y-65466980D02*
X235826323Y-66466980D01*
X236016800Y-65752695D01*
X236207276Y-66466980D01*
X236445371Y-65466980D01*
X237302514Y-65466980D02*
X236826323Y-65466980D01*
X236778704Y-65943171D01*
X236826323Y-65895552D01*
X236921561Y-65847933D01*
X237159657Y-65847933D01*
X237254895Y-65895552D01*
X237302514Y-65943171D01*
X237350133Y-66038409D01*
X237350133Y-66276504D01*
X237302514Y-66371742D01*
X237254895Y-66419361D01*
X237159657Y-66466980D01*
X236921561Y-66466980D01*
X236826323Y-66419361D01*
X236778704Y-66371742D01*
G04 #@! TO.C,SW2*
X92672066Y-66393961D02*
X92814923Y-66441580D01*
X93053019Y-66441580D01*
X93148257Y-66393961D01*
X93195876Y-66346342D01*
X93243495Y-66251104D01*
X93243495Y-66155866D01*
X93195876Y-66060628D01*
X93148257Y-66013009D01*
X93053019Y-65965390D01*
X92862542Y-65917771D01*
X92767304Y-65870152D01*
X92719685Y-65822533D01*
X92672066Y-65727295D01*
X92672066Y-65632057D01*
X92719685Y-65536819D01*
X92767304Y-65489200D01*
X92862542Y-65441580D01*
X93100638Y-65441580D01*
X93243495Y-65489200D01*
X93576828Y-65441580D02*
X93814923Y-66441580D01*
X94005400Y-65727295D01*
X94195876Y-66441580D01*
X94433971Y-65441580D01*
X94767304Y-65536819D02*
X94814923Y-65489200D01*
X94910161Y-65441580D01*
X95148257Y-65441580D01*
X95243495Y-65489200D01*
X95291114Y-65536819D01*
X95338733Y-65632057D01*
X95338733Y-65727295D01*
X95291114Y-65870152D01*
X94719685Y-66441580D01*
X95338733Y-66441580D01*
G04 #@! TO.C,J2*
X42287866Y-59777380D02*
X42287866Y-60491666D01*
X42240247Y-60634523D01*
X42145009Y-60729761D01*
X42002152Y-60777380D01*
X41906914Y-60777380D01*
X42716438Y-59872619D02*
X42764057Y-59825000D01*
X42859295Y-59777380D01*
X43097390Y-59777380D01*
X43192628Y-59825000D01*
X43240247Y-59872619D01*
X43287866Y-59967857D01*
X43287866Y-60063095D01*
X43240247Y-60205952D01*
X42668819Y-60777380D01*
X43287866Y-60777380D01*
G04 #@! TO.C,J8*
X254682666Y-47204380D02*
X254682666Y-47918666D01*
X254635047Y-48061523D01*
X254539809Y-48156761D01*
X254396952Y-48204380D01*
X254301714Y-48204380D01*
X255301714Y-47632952D02*
X255206476Y-47585333D01*
X255158857Y-47537714D01*
X255111238Y-47442476D01*
X255111238Y-47394857D01*
X255158857Y-47299619D01*
X255206476Y-47252000D01*
X255301714Y-47204380D01*
X255492190Y-47204380D01*
X255587428Y-47252000D01*
X255635047Y-47299619D01*
X255682666Y-47394857D01*
X255682666Y-47442476D01*
X255635047Y-47537714D01*
X255587428Y-47585333D01*
X255492190Y-47632952D01*
X255301714Y-47632952D01*
X255206476Y-47680571D01*
X255158857Y-47728190D01*
X255111238Y-47823428D01*
X255111238Y-48013904D01*
X255158857Y-48109142D01*
X255206476Y-48156761D01*
X255301714Y-48204380D01*
X255492190Y-48204380D01*
X255587428Y-48156761D01*
X255635047Y-48109142D01*
X255682666Y-48013904D01*
X255682666Y-47823428D01*
X255635047Y-47728190D01*
X255587428Y-47680571D01*
X255492190Y-47632952D01*
G04 #@! TO.C,J9*
X206930666Y-47204380D02*
X206930666Y-47918666D01*
X206883047Y-48061523D01*
X206787809Y-48156761D01*
X206644952Y-48204380D01*
X206549714Y-48204380D01*
X207454476Y-48204380D02*
X207644952Y-48204380D01*
X207740190Y-48156761D01*
X207787809Y-48109142D01*
X207883047Y-47966285D01*
X207930666Y-47775809D01*
X207930666Y-47394857D01*
X207883047Y-47299619D01*
X207835428Y-47252000D01*
X207740190Y-47204380D01*
X207549714Y-47204380D01*
X207454476Y-47252000D01*
X207406857Y-47299619D01*
X207359238Y-47394857D01*
X207359238Y-47632952D01*
X207406857Y-47728190D01*
X207454476Y-47775809D01*
X207549714Y-47823428D01*
X207740190Y-47823428D01*
X207835428Y-47775809D01*
X207883047Y-47728190D01*
X207930666Y-47632952D01*
G04 #@! TO.C,J6*
X158086466Y-47128180D02*
X158086466Y-47842466D01*
X158038847Y-47985323D01*
X157943609Y-48080561D01*
X157800752Y-48128180D01*
X157705514Y-48128180D01*
X158991228Y-47128180D02*
X158800752Y-47128180D01*
X158705514Y-47175800D01*
X158657895Y-47223419D01*
X158562657Y-47366276D01*
X158515038Y-47556752D01*
X158515038Y-47937704D01*
X158562657Y-48032942D01*
X158610276Y-48080561D01*
X158705514Y-48128180D01*
X158895990Y-48128180D01*
X158991228Y-48080561D01*
X159038847Y-48032942D01*
X159086466Y-47937704D01*
X159086466Y-47699609D01*
X159038847Y-47604371D01*
X158991228Y-47556752D01*
X158895990Y-47509133D01*
X158705514Y-47509133D01*
X158610276Y-47556752D01*
X158562657Y-47604371D01*
X158515038Y-47699609D01*
G04 #@! TO.C,J4*
X109877266Y-46975780D02*
X109877266Y-47690066D01*
X109829647Y-47832923D01*
X109734409Y-47928161D01*
X109591552Y-47975780D01*
X109496314Y-47975780D01*
X110782028Y-47309114D02*
X110782028Y-47975780D01*
X110543933Y-46928161D02*
X110305838Y-47642447D01*
X110924885Y-47642447D01*
G04 #@! TO.C,J10*
X276609276Y-50684180D02*
X276609276Y-51398466D01*
X276561657Y-51541323D01*
X276466419Y-51636561D01*
X276323561Y-51684180D01*
X276228323Y-51684180D01*
X277609276Y-51684180D02*
X277037847Y-51684180D01*
X277323561Y-51684180D02*
X277323561Y-50684180D01*
X277228323Y-50827038D01*
X277133085Y-50922276D01*
X277037847Y-50969895D01*
X278228323Y-50684180D02*
X278323561Y-50684180D01*
X278418800Y-50731800D01*
X278466419Y-50779419D01*
X278514038Y-50874657D01*
X278561657Y-51065133D01*
X278561657Y-51303228D01*
X278514038Y-51493704D01*
X278466419Y-51588942D01*
X278418800Y-51636561D01*
X278323561Y-51684180D01*
X278228323Y-51684180D01*
X278133085Y-51636561D01*
X278085466Y-51588942D01*
X278037847Y-51493704D01*
X277990228Y-51303228D01*
X277990228Y-51065133D01*
X278037847Y-50874657D01*
X278085466Y-50779419D01*
X278133085Y-50731800D01*
X278228323Y-50684180D01*
G04 #@! TO.C,J11*
X228374676Y-50887380D02*
X228374676Y-51601666D01*
X228327057Y-51744523D01*
X228231819Y-51839761D01*
X228088961Y-51887380D01*
X227993723Y-51887380D01*
X229374676Y-51887380D02*
X228803247Y-51887380D01*
X229088961Y-51887380D02*
X229088961Y-50887380D01*
X228993723Y-51030238D01*
X228898485Y-51125476D01*
X228803247Y-51173095D01*
X230327057Y-51887380D02*
X229755628Y-51887380D01*
X230041342Y-51887380D02*
X230041342Y-50887380D01*
X229946104Y-51030238D01*
X229850866Y-51125476D01*
X229755628Y-51173095D01*
G04 #@! TO.C,J7*
X181022666Y-50760380D02*
X181022666Y-51474666D01*
X180975047Y-51617523D01*
X180879809Y-51712761D01*
X180736952Y-51760380D01*
X180641714Y-51760380D01*
X181403619Y-50760380D02*
X182070285Y-50760380D01*
X181641714Y-51760380D01*
G04 #@! TO.C,J5*
X132762666Y-50760380D02*
X132762666Y-51474666D01*
X132715047Y-51617523D01*
X132619809Y-51712761D01*
X132476952Y-51760380D01*
X132381714Y-51760380D01*
X133715047Y-50760380D02*
X133238857Y-50760380D01*
X133191238Y-51236571D01*
X133238857Y-51188952D01*
X133334095Y-51141333D01*
X133572190Y-51141333D01*
X133667428Y-51188952D01*
X133715047Y-51236571D01*
X133762666Y-51331809D01*
X133762666Y-51569904D01*
X133715047Y-51665142D01*
X133667428Y-51712761D01*
X133572190Y-51760380D01*
X133334095Y-51760380D01*
X133238857Y-51712761D01*
X133191238Y-51665142D01*
G04 #@! TO.C,C5*
X290866533Y-60250342D02*
X290818914Y-60297961D01*
X290676057Y-60345580D01*
X290580819Y-60345580D01*
X290437961Y-60297961D01*
X290342723Y-60202723D01*
X290295104Y-60107485D01*
X290247485Y-59917009D01*
X290247485Y-59774152D01*
X290295104Y-59583676D01*
X290342723Y-59488438D01*
X290437961Y-59393200D01*
X290580819Y-59345580D01*
X290676057Y-59345580D01*
X290818914Y-59393200D01*
X290866533Y-59440819D01*
X291771295Y-59345580D02*
X291295104Y-59345580D01*
X291247485Y-59821771D01*
X291295104Y-59774152D01*
X291390342Y-59726533D01*
X291628438Y-59726533D01*
X291723676Y-59774152D01*
X291771295Y-59821771D01*
X291818914Y-59917009D01*
X291818914Y-60155104D01*
X291771295Y-60250342D01*
X291723676Y-60297961D01*
X291628438Y-60345580D01*
X291390342Y-60345580D01*
X291295104Y-60297961D01*
X291247485Y-60250342D01*
G04 #@! TO.C,C4*
X242835133Y-60580542D02*
X242787514Y-60628161D01*
X242644657Y-60675780D01*
X242549419Y-60675780D01*
X242406561Y-60628161D01*
X242311323Y-60532923D01*
X242263704Y-60437685D01*
X242216085Y-60247209D01*
X242216085Y-60104352D01*
X242263704Y-59913876D01*
X242311323Y-59818638D01*
X242406561Y-59723400D01*
X242549419Y-59675780D01*
X242644657Y-59675780D01*
X242787514Y-59723400D01*
X242835133Y-59771019D01*
X243692276Y-60009114D02*
X243692276Y-60675780D01*
X243454180Y-59628161D02*
X243216085Y-60342447D01*
X243835133Y-60342447D01*
G04 #@! TO.C,C3*
X193940133Y-60148742D02*
X193892514Y-60196361D01*
X193749657Y-60243980D01*
X193654419Y-60243980D01*
X193511561Y-60196361D01*
X193416323Y-60101123D01*
X193368704Y-60005885D01*
X193321085Y-59815409D01*
X193321085Y-59672552D01*
X193368704Y-59482076D01*
X193416323Y-59386838D01*
X193511561Y-59291600D01*
X193654419Y-59243980D01*
X193749657Y-59243980D01*
X193892514Y-59291600D01*
X193940133Y-59339219D01*
X194273466Y-59243980D02*
X194892514Y-59243980D01*
X194559180Y-59624933D01*
X194702038Y-59624933D01*
X194797276Y-59672552D01*
X194844895Y-59720171D01*
X194892514Y-59815409D01*
X194892514Y-60053504D01*
X194844895Y-60148742D01*
X194797276Y-60196361D01*
X194702038Y-60243980D01*
X194416323Y-60243980D01*
X194321085Y-60196361D01*
X194273466Y-60148742D01*
G04 #@! TO.C,C2*
X140955733Y-58624742D02*
X140908114Y-58672361D01*
X140765257Y-58719980D01*
X140670019Y-58719980D01*
X140527161Y-58672361D01*
X140431923Y-58577123D01*
X140384304Y-58481885D01*
X140336685Y-58291409D01*
X140336685Y-58148552D01*
X140384304Y-57958076D01*
X140431923Y-57862838D01*
X140527161Y-57767600D01*
X140670019Y-57719980D01*
X140765257Y-57719980D01*
X140908114Y-57767600D01*
X140955733Y-57815219D01*
X141336685Y-57815219D02*
X141384304Y-57767600D01*
X141479542Y-57719980D01*
X141717638Y-57719980D01*
X141812876Y-57767600D01*
X141860495Y-57815219D01*
X141908114Y-57910457D01*
X141908114Y-58005695D01*
X141860495Y-58148552D01*
X141289066Y-58719980D01*
X141908114Y-58719980D01*
G04 #@! TO.C,J3*
X84502666Y-50760380D02*
X84502666Y-51474666D01*
X84455047Y-51617523D01*
X84359809Y-51712761D01*
X84216952Y-51760380D01*
X84121714Y-51760380D01*
X84883619Y-50760380D02*
X85502666Y-50760380D01*
X85169333Y-51141333D01*
X85312190Y-51141333D01*
X85407428Y-51188952D01*
X85455047Y-51236571D01*
X85502666Y-51331809D01*
X85502666Y-51569904D01*
X85455047Y-51665142D01*
X85407428Y-51712761D01*
X85312190Y-51760380D01*
X85026476Y-51760380D01*
X84931238Y-51712761D01*
X84883619Y-51665142D01*
G04 #@! TO.C,J1*
X61642666Y-47204380D02*
X61642666Y-47918666D01*
X61595047Y-48061523D01*
X61499809Y-48156761D01*
X61356952Y-48204380D01*
X61261714Y-48204380D01*
X62642666Y-48204380D02*
X62071238Y-48204380D01*
X62356952Y-48204380D02*
X62356952Y-47204380D01*
X62261714Y-47347238D01*
X62166476Y-47442476D01*
X62071238Y-47490095D01*
G04 #@! TO.C,C1*
X92543333Y-58700942D02*
X92495714Y-58748561D01*
X92352857Y-58796180D01*
X92257619Y-58796180D01*
X92114761Y-58748561D01*
X92019523Y-58653323D01*
X91971904Y-58558085D01*
X91924285Y-58367609D01*
X91924285Y-58224752D01*
X91971904Y-58034276D01*
X92019523Y-57939038D01*
X92114761Y-57843800D01*
X92257619Y-57796180D01*
X92352857Y-57796180D01*
X92495714Y-57843800D01*
X92543333Y-57891419D01*
X93495714Y-58796180D02*
X92924285Y-58796180D01*
X93210000Y-58796180D02*
X93210000Y-57796180D01*
X93114761Y-57939038D01*
X93019523Y-58034276D01*
X92924285Y-58081895D01*
G04 #@! TO.C,C6*
X93956142Y-51017466D02*
X94003761Y-51065085D01*
X94051380Y-51207942D01*
X94051380Y-51303180D01*
X94003761Y-51446038D01*
X93908523Y-51541276D01*
X93813285Y-51588895D01*
X93622809Y-51636514D01*
X93479952Y-51636514D01*
X93289476Y-51588895D01*
X93194238Y-51541276D01*
X93099000Y-51446038D01*
X93051380Y-51303180D01*
X93051380Y-51207942D01*
X93099000Y-51065085D01*
X93146619Y-51017466D01*
X93051380Y-50160323D02*
X93051380Y-50350800D01*
X93099000Y-50446038D01*
X93146619Y-50493657D01*
X93289476Y-50588895D01*
X93479952Y-50636514D01*
X93860904Y-50636514D01*
X93956142Y-50588895D01*
X94003761Y-50541276D01*
X94051380Y-50446038D01*
X94051380Y-50255561D01*
X94003761Y-50160323D01*
X93956142Y-50112704D01*
X93860904Y-50065085D01*
X93622809Y-50065085D01*
X93527571Y-50112704D01*
X93479952Y-50160323D01*
X93432333Y-50255561D01*
X93432333Y-50446038D01*
X93479952Y-50541276D01*
X93527571Y-50588895D01*
X93622809Y-50636514D01*
G04 #@! TO.C,C7*
X142190742Y-51042866D02*
X142238361Y-51090485D01*
X142285980Y-51233342D01*
X142285980Y-51328580D01*
X142238361Y-51471438D01*
X142143123Y-51566676D01*
X142047885Y-51614295D01*
X141857409Y-51661914D01*
X141714552Y-51661914D01*
X141524076Y-51614295D01*
X141428838Y-51566676D01*
X141333600Y-51471438D01*
X141285980Y-51328580D01*
X141285980Y-51233342D01*
X141333600Y-51090485D01*
X141381219Y-51042866D01*
X141285980Y-50709533D02*
X141285980Y-50042866D01*
X142285980Y-50471438D01*
G04 #@! TO.C,C8*
X190679342Y-50890466D02*
X190726961Y-50938085D01*
X190774580Y-51080942D01*
X190774580Y-51176180D01*
X190726961Y-51319038D01*
X190631723Y-51414276D01*
X190536485Y-51461895D01*
X190346009Y-51509514D01*
X190203152Y-51509514D01*
X190012676Y-51461895D01*
X189917438Y-51414276D01*
X189822200Y-51319038D01*
X189774580Y-51176180D01*
X189774580Y-51080942D01*
X189822200Y-50938085D01*
X189869819Y-50890466D01*
X190203152Y-50319038D02*
X190155533Y-50414276D01*
X190107914Y-50461895D01*
X190012676Y-50509514D01*
X189965057Y-50509514D01*
X189869819Y-50461895D01*
X189822200Y-50414276D01*
X189774580Y-50319038D01*
X189774580Y-50128561D01*
X189822200Y-50033323D01*
X189869819Y-49985704D01*
X189965057Y-49938085D01*
X190012676Y-49938085D01*
X190107914Y-49985704D01*
X190155533Y-50033323D01*
X190203152Y-50128561D01*
X190203152Y-50319038D01*
X190250771Y-50414276D01*
X190298390Y-50461895D01*
X190393628Y-50509514D01*
X190584104Y-50509514D01*
X190679342Y-50461895D01*
X190726961Y-50414276D01*
X190774580Y-50319038D01*
X190774580Y-50128561D01*
X190726961Y-50033323D01*
X190679342Y-49985704D01*
X190584104Y-49938085D01*
X190393628Y-49938085D01*
X190298390Y-49985704D01*
X190250771Y-50033323D01*
X190203152Y-50128561D01*
G04 #@! TO.C,C9*
X239269542Y-51017466D02*
X239317161Y-51065085D01*
X239364780Y-51207942D01*
X239364780Y-51303180D01*
X239317161Y-51446038D01*
X239221923Y-51541276D01*
X239126685Y-51588895D01*
X238936209Y-51636514D01*
X238793352Y-51636514D01*
X238602876Y-51588895D01*
X238507638Y-51541276D01*
X238412400Y-51446038D01*
X238364780Y-51303180D01*
X238364780Y-51207942D01*
X238412400Y-51065085D01*
X238460019Y-51017466D01*
X239364780Y-50541276D02*
X239364780Y-50350800D01*
X239317161Y-50255561D01*
X239269542Y-50207942D01*
X239126685Y-50112704D01*
X238936209Y-50065085D01*
X238555257Y-50065085D01*
X238460019Y-50112704D01*
X238412400Y-50160323D01*
X238364780Y-50255561D01*
X238364780Y-50446038D01*
X238412400Y-50541276D01*
X238460019Y-50588895D01*
X238555257Y-50636514D01*
X238793352Y-50636514D01*
X238888590Y-50588895D01*
X238936209Y-50541276D01*
X238983828Y-50446038D01*
X238983828Y-50255561D01*
X238936209Y-50160323D01*
X238888590Y-50112704D01*
X238793352Y-50065085D01*
G04 #@! TO.C,C10*
X287300942Y-51798457D02*
X287348561Y-51846076D01*
X287396180Y-51988933D01*
X287396180Y-52084171D01*
X287348561Y-52227028D01*
X287253323Y-52322266D01*
X287158085Y-52369885D01*
X286967609Y-52417504D01*
X286824752Y-52417504D01*
X286634276Y-52369885D01*
X286539038Y-52322266D01*
X286443800Y-52227028D01*
X286396180Y-52084171D01*
X286396180Y-51988933D01*
X286443800Y-51846076D01*
X286491419Y-51798457D01*
X287396180Y-50846076D02*
X287396180Y-51417504D01*
X287396180Y-51131790D02*
X286396180Y-51131790D01*
X286539038Y-51227028D01*
X286634276Y-51322266D01*
X286681895Y-51417504D01*
X286396180Y-50227028D02*
X286396180Y-50131790D01*
X286443800Y-50036552D01*
X286491419Y-49988933D01*
X286586657Y-49941314D01*
X286777133Y-49893695D01*
X287015228Y-49893695D01*
X287205704Y-49941314D01*
X287300942Y-49988933D01*
X287348561Y-50036552D01*
X287396180Y-50131790D01*
X287396180Y-50227028D01*
X287348561Y-50322266D01*
X287300942Y-50369885D01*
X287205704Y-50417504D01*
X287015228Y-50465123D01*
X286777133Y-50465123D01*
X286586657Y-50417504D01*
X286491419Y-50369885D01*
X286443800Y-50322266D01*
X286396180Y-50227028D01*
G04 #@! TO.C,D1*
X54125904Y-89860380D02*
X54125904Y-88860380D01*
X54364000Y-88860380D01*
X54506857Y-88908000D01*
X54602095Y-89003238D01*
X54649714Y-89098476D01*
X54697333Y-89288952D01*
X54697333Y-89431809D01*
X54649714Y-89622285D01*
X54602095Y-89717523D01*
X54506857Y-89812761D01*
X54364000Y-89860380D01*
X54125904Y-89860380D01*
X55649714Y-89860380D02*
X55078285Y-89860380D01*
X55364000Y-89860380D02*
X55364000Y-88860380D01*
X55268761Y-89003238D01*
X55173523Y-89098476D01*
X55078285Y-89146095D01*
G04 #@! TO.C,D2*
X54125904Y-75128380D02*
X54125904Y-74128380D01*
X54364000Y-74128380D01*
X54506857Y-74176000D01*
X54602095Y-74271238D01*
X54649714Y-74366476D01*
X54697333Y-74556952D01*
X54697333Y-74699809D01*
X54649714Y-74890285D01*
X54602095Y-74985523D01*
X54506857Y-75080761D01*
X54364000Y-75128380D01*
X54125904Y-75128380D01*
X55078285Y-74223619D02*
X55125904Y-74176000D01*
X55221142Y-74128380D01*
X55459238Y-74128380D01*
X55554476Y-74176000D01*
X55602095Y-74223619D01*
X55649714Y-74318857D01*
X55649714Y-74414095D01*
X55602095Y-74556952D01*
X55030666Y-75128380D01*
X55649714Y-75128380D01*
G04 #@! TO.C,D3*
X102893904Y-89860380D02*
X102893904Y-88860380D01*
X103132000Y-88860380D01*
X103274857Y-88908000D01*
X103370095Y-89003238D01*
X103417714Y-89098476D01*
X103465333Y-89288952D01*
X103465333Y-89431809D01*
X103417714Y-89622285D01*
X103370095Y-89717523D01*
X103274857Y-89812761D01*
X103132000Y-89860380D01*
X102893904Y-89860380D01*
X103798666Y-88860380D02*
X104417714Y-88860380D01*
X104084380Y-89241333D01*
X104227238Y-89241333D01*
X104322476Y-89288952D01*
X104370095Y-89336571D01*
X104417714Y-89431809D01*
X104417714Y-89669904D01*
X104370095Y-89765142D01*
X104322476Y-89812761D01*
X104227238Y-89860380D01*
X103941523Y-89860380D01*
X103846285Y-89812761D01*
X103798666Y-89765142D01*
G04 #@! TO.C,D4*
X102893904Y-75128380D02*
X102893904Y-74128380D01*
X103132000Y-74128380D01*
X103274857Y-74176000D01*
X103370095Y-74271238D01*
X103417714Y-74366476D01*
X103465333Y-74556952D01*
X103465333Y-74699809D01*
X103417714Y-74890285D01*
X103370095Y-74985523D01*
X103274857Y-75080761D01*
X103132000Y-75128380D01*
X102893904Y-75128380D01*
X104322476Y-74461714D02*
X104322476Y-75128380D01*
X104084380Y-74080761D02*
X103846285Y-74795047D01*
X104465333Y-74795047D01*
G04 #@! TO.C,D5*
X151153904Y-89860380D02*
X151153904Y-88860380D01*
X151392000Y-88860380D01*
X151534857Y-88908000D01*
X151630095Y-89003238D01*
X151677714Y-89098476D01*
X151725333Y-89288952D01*
X151725333Y-89431809D01*
X151677714Y-89622285D01*
X151630095Y-89717523D01*
X151534857Y-89812761D01*
X151392000Y-89860380D01*
X151153904Y-89860380D01*
X152630095Y-88860380D02*
X152153904Y-88860380D01*
X152106285Y-89336571D01*
X152153904Y-89288952D01*
X152249142Y-89241333D01*
X152487238Y-89241333D01*
X152582476Y-89288952D01*
X152630095Y-89336571D01*
X152677714Y-89431809D01*
X152677714Y-89669904D01*
X152630095Y-89765142D01*
X152582476Y-89812761D01*
X152487238Y-89860380D01*
X152249142Y-89860380D01*
X152153904Y-89812761D01*
X152106285Y-89765142D01*
G04 #@! TO.C,D6*
X151153904Y-75128380D02*
X151153904Y-74128380D01*
X151392000Y-74128380D01*
X151534857Y-74176000D01*
X151630095Y-74271238D01*
X151677714Y-74366476D01*
X151725333Y-74556952D01*
X151725333Y-74699809D01*
X151677714Y-74890285D01*
X151630095Y-74985523D01*
X151534857Y-75080761D01*
X151392000Y-75128380D01*
X151153904Y-75128380D01*
X152582476Y-74128380D02*
X152392000Y-74128380D01*
X152296761Y-74176000D01*
X152249142Y-74223619D01*
X152153904Y-74366476D01*
X152106285Y-74556952D01*
X152106285Y-74937904D01*
X152153904Y-75033142D01*
X152201523Y-75080761D01*
X152296761Y-75128380D01*
X152487238Y-75128380D01*
X152582476Y-75080761D01*
X152630095Y-75033142D01*
X152677714Y-74937904D01*
X152677714Y-74699809D01*
X152630095Y-74604571D01*
X152582476Y-74556952D01*
X152487238Y-74509333D01*
X152296761Y-74509333D01*
X152201523Y-74556952D01*
X152153904Y-74604571D01*
X152106285Y-74699809D01*
G04 #@! TO.C,D7*
X199921904Y-89860380D02*
X199921904Y-88860380D01*
X200160000Y-88860380D01*
X200302857Y-88908000D01*
X200398095Y-89003238D01*
X200445714Y-89098476D01*
X200493333Y-89288952D01*
X200493333Y-89431809D01*
X200445714Y-89622285D01*
X200398095Y-89717523D01*
X200302857Y-89812761D01*
X200160000Y-89860380D01*
X199921904Y-89860380D01*
X200826666Y-88860380D02*
X201493333Y-88860380D01*
X201064761Y-89860380D01*
G04 #@! TO.C,D8*
X199921904Y-75128380D02*
X199921904Y-74128380D01*
X200160000Y-74128380D01*
X200302857Y-74176000D01*
X200398095Y-74271238D01*
X200445714Y-74366476D01*
X200493333Y-74556952D01*
X200493333Y-74699809D01*
X200445714Y-74890285D01*
X200398095Y-74985523D01*
X200302857Y-75080761D01*
X200160000Y-75128380D01*
X199921904Y-75128380D01*
X201064761Y-74556952D02*
X200969523Y-74509333D01*
X200921904Y-74461714D01*
X200874285Y-74366476D01*
X200874285Y-74318857D01*
X200921904Y-74223619D01*
X200969523Y-74176000D01*
X201064761Y-74128380D01*
X201255238Y-74128380D01*
X201350476Y-74176000D01*
X201398095Y-74223619D01*
X201445714Y-74318857D01*
X201445714Y-74366476D01*
X201398095Y-74461714D01*
X201350476Y-74509333D01*
X201255238Y-74556952D01*
X201064761Y-74556952D01*
X200969523Y-74604571D01*
X200921904Y-74652190D01*
X200874285Y-74747428D01*
X200874285Y-74937904D01*
X200921904Y-75033142D01*
X200969523Y-75080761D01*
X201064761Y-75128380D01*
X201255238Y-75128380D01*
X201350476Y-75080761D01*
X201398095Y-75033142D01*
X201445714Y-74937904D01*
X201445714Y-74747428D01*
X201398095Y-74652190D01*
X201350476Y-74604571D01*
X201255238Y-74556952D01*
G04 #@! TO.C,D9*
X248943904Y-89809580D02*
X248943904Y-88809580D01*
X249182000Y-88809580D01*
X249324857Y-88857200D01*
X249420095Y-88952438D01*
X249467714Y-89047676D01*
X249515333Y-89238152D01*
X249515333Y-89381009D01*
X249467714Y-89571485D01*
X249420095Y-89666723D01*
X249324857Y-89761961D01*
X249182000Y-89809580D01*
X248943904Y-89809580D01*
X249991523Y-89809580D02*
X250182000Y-89809580D01*
X250277238Y-89761961D01*
X250324857Y-89714342D01*
X250420095Y-89571485D01*
X250467714Y-89381009D01*
X250467714Y-89000057D01*
X250420095Y-88904819D01*
X250372476Y-88857200D01*
X250277238Y-88809580D01*
X250086761Y-88809580D01*
X249991523Y-88857200D01*
X249943904Y-88904819D01*
X249896285Y-89000057D01*
X249896285Y-89238152D01*
X249943904Y-89333390D01*
X249991523Y-89381009D01*
X250086761Y-89428628D01*
X250277238Y-89428628D01*
X250372476Y-89381009D01*
X250420095Y-89333390D01*
X250467714Y-89238152D01*
G04 #@! TO.C,D10*
X248467714Y-75077580D02*
X248467714Y-74077580D01*
X248705809Y-74077580D01*
X248848666Y-74125200D01*
X248943904Y-74220438D01*
X248991523Y-74315676D01*
X249039142Y-74506152D01*
X249039142Y-74649009D01*
X248991523Y-74839485D01*
X248943904Y-74934723D01*
X248848666Y-75029961D01*
X248705809Y-75077580D01*
X248467714Y-75077580D01*
X249991523Y-75077580D02*
X249420095Y-75077580D01*
X249705809Y-75077580D02*
X249705809Y-74077580D01*
X249610571Y-74220438D01*
X249515333Y-74315676D01*
X249420095Y-74363295D01*
X250610571Y-74077580D02*
X250705809Y-74077580D01*
X250801047Y-74125200D01*
X250848666Y-74172819D01*
X250896285Y-74268057D01*
X250943904Y-74458533D01*
X250943904Y-74696628D01*
X250896285Y-74887104D01*
X250848666Y-74982342D01*
X250801047Y-75029961D01*
X250705809Y-75077580D01*
X250610571Y-75077580D01*
X250515333Y-75029961D01*
X250467714Y-74982342D01*
X250420095Y-74887104D01*
X250372476Y-74696628D01*
X250372476Y-74458533D01*
X250420095Y-74268057D01*
X250467714Y-74172819D01*
X250515333Y-74125200D01*
X250610571Y-74077580D01*
G04 #@! TD*
M02*
