M48
;DRILL file {KiCad (5.0.0-3-g5ebb6b6)} date Wednesday, September 12, 2018 at 08:08:58 PM
;FORMAT={-:-/ absolute / inch / decimal}
FMAT,2
INCH,TZ
T1C0.0276
T2C0.0315
T3C0.0354
T4C0.0360
T5C0.0394
T6C0.0492
T7C0.0910
%
G90
G05
M72
T1
X5.7Y-3.28
X5.9Y-3.28
X3.8Y-3.14
X4.Y-3.14
X7.62Y-3.28
X7.82Y-3.28
X1.86Y-3.28
X2.06Y-3.28
X9.56Y-3.28
X9.76Y-3.28
X3.8Y-3.28
X4.Y-3.28
X1.911Y-2.205
X2.111Y-2.205
X5.7Y-3.14
X5.9Y-3.14
X7.62Y-3.14
X7.82Y-3.14
X1.86Y-3.14
X2.06Y-3.14
X9.56Y-3.14
X9.76Y-3.14
T2
X3.83Y-2.057
X3.83Y-2.2539
X5.736Y-2.054
X5.736Y-2.2509
X3.613Y-2.013
X3.613Y-2.1114
X9.326Y-2.022
X9.326Y-2.1204
X11.217Y-2.014
X11.217Y-2.1124
X7.413Y-2.017
X7.413Y-2.1154
X1.757Y-2.0473
X1.757Y-2.126
X1.757Y-2.2047
X9.567Y-2.051
X9.567Y-2.2479
X5.509Y-2.011
X5.509Y-2.1094
X11.458Y-2.058
X11.458Y-2.2549
X7.642Y-2.054
X7.642Y-2.2509
T3
X4.14Y-3.36
X4.24Y-3.36
X2.2Y-3.36
X2.3Y-3.36
X2.2Y-3.1
X2.3Y-3.1
X6.04Y-3.36
X9.88Y-3.1
X9.98Y-3.1
X9.88Y-3.36
X9.98Y-3.36
X7.94Y-3.1
X8.04Y-3.1
X4.14Y-3.1
X7.94Y-3.36
X8.04Y-3.36
X6.04Y-3.1
X6.14Y-3.1
X6.14Y-3.36
X4.24Y-3.1
T4
X1.985Y-2.557
X1.985Y-2.6555
X1.985Y-2.7345
X1.985Y-2.833
T5
X11.06Y-2.02
X11.06Y-2.12
X11.06Y-2.22
X11.06Y-2.32
X11.06Y-2.42
X11.06Y-2.52
X11.06Y-2.62
X11.06Y-2.72
X11.06Y-2.82
X11.06Y-2.92
X11.06Y-3.02
X11.06Y-3.12
X11.06Y-3.22
X11.06Y-3.32
X11.06Y-3.42
X9.16Y-2.02
X9.16Y-2.12
X9.16Y-2.22
X9.16Y-2.32
X9.16Y-2.42
X9.16Y-2.52
X9.16Y-2.62
X9.16Y-2.72
X9.16Y-2.82
X9.16Y-2.92
X9.16Y-3.02
X9.16Y-3.12
X9.16Y-3.22
X9.16Y-3.32
X9.16Y-3.42
X10.16Y-2.02
X10.16Y-2.12
X10.16Y-2.22
X10.16Y-2.32
X10.16Y-2.42
X10.16Y-2.52
X10.16Y-2.62
X10.16Y-2.72
X10.16Y-2.82
X10.16Y-2.92
X10.16Y-3.02
X10.16Y-3.12
X10.16Y-3.22
X10.16Y-3.32
X10.16Y-3.42
X11.3Y-2.68
X11.3Y-2.8572
X11.428Y-2.6072
X11.5559Y-2.68
X11.5559Y-2.8572
X3.46Y-2.02
X3.46Y-2.12
X3.46Y-2.22
X3.46Y-2.32
X3.46Y-2.42
X3.46Y-2.52
X3.46Y-2.62
X3.46Y-2.72
X3.46Y-2.82
X3.46Y-2.92
X3.46Y-3.02
X3.46Y-3.12
X3.46Y-3.22
X3.46Y-3.32
X3.46Y-3.42
X5.6Y-2.68
X5.6Y-2.8572
X5.728Y-2.6072
X5.8559Y-2.68
X5.8559Y-2.8572
X2.56Y-2.02
X2.56Y-2.12
X2.56Y-2.22
X2.56Y-2.32
X2.56Y-2.42
X2.56Y-2.52
X2.56Y-2.62
X2.56Y-2.72
X2.56Y-2.82
X2.56Y-2.92
X2.56Y-3.02
X2.56Y-3.12
X2.56Y-3.22
X2.56Y-3.32
X2.56Y-3.42
X7.26Y-2.02
X7.26Y-2.12
X7.26Y-2.22
X7.26Y-2.32
X7.26Y-2.42
X7.26Y-2.52
X7.26Y-2.62
X7.26Y-2.72
X7.26Y-2.82
X7.26Y-2.92
X7.26Y-3.02
X7.26Y-3.12
X7.26Y-3.22
X7.26Y-3.32
X7.26Y-3.42
X6.36Y-2.02
X6.36Y-2.12
X6.36Y-2.22
X6.36Y-2.32
X6.36Y-2.42
X6.36Y-2.52
X6.36Y-2.62
X6.36Y-2.72
X6.36Y-2.82
X6.36Y-2.92
X6.36Y-3.02
X6.36Y-3.12
X6.36Y-3.22
X6.36Y-3.32
X6.36Y-3.42
X7.5Y-2.68
X7.5Y-2.8572
X7.628Y-2.6072
X7.7559Y-2.68
X7.7559Y-2.8572
X8.26Y-2.02
X8.26Y-2.12
X8.26Y-2.22
X8.26Y-2.32
X8.26Y-2.42
X8.26Y-2.52
X8.26Y-2.62
X8.26Y-2.72
X8.26Y-2.82
X8.26Y-2.92
X8.26Y-3.02
X8.26Y-3.12
X8.26Y-3.22
X8.26Y-3.32
X8.26Y-3.42
X5.36Y-2.02
X5.36Y-2.12
X5.36Y-2.22
X5.36Y-2.32
X5.36Y-2.42
X5.36Y-2.52
X5.36Y-2.62
X5.36Y-2.72
X5.36Y-2.82
X5.36Y-2.92
X5.36Y-3.02
X5.36Y-3.12
X5.36Y-3.22
X5.36Y-3.32
X5.36Y-3.42
X9.4Y-2.68
X9.4Y-2.8572
X9.528Y-2.6072
X9.6559Y-2.68
X9.6559Y-2.8572
X4.46Y-2.02
X4.46Y-2.12
X4.46Y-2.22
X4.46Y-2.32
X4.46Y-2.42
X4.46Y-2.52
X4.46Y-2.62
X4.46Y-2.72
X4.46Y-2.82
X4.46Y-2.92
X4.46Y-3.02
X4.46Y-3.12
X4.46Y-3.22
X4.46Y-3.32
X4.46Y-3.42
X3.7Y-2.68
X3.7Y-2.8572
X3.828Y-2.6072
X3.9559Y-2.68
X3.9559Y-2.8572
T6
X1.757Y-1.9646
X1.757Y-2.2874
T7
X1.878Y-2.4365
X1.878Y-2.9535
T0
M30
